<?xml version="1.0" standalone="no"?>
<!DOCTYPE svg PUBLIC "-//W3C//DTD SVG 20010904//EN"
 "http://www.w3.org/TR/2001/REC-SVG-20010904/DTD/svg10.dtd">
<svg version="1.0" xmlns="http://www.w3.org/2000/svg"
 width="512.000000pt" height="512.000000pt" viewBox="0 0 512.000000 512.000000"
 preserveAspectRatio="xMidYMid meet">
<g transform="translate(0.000000,512.000000) scale(0.100000,-0.100000)"
fill="#000000" stroke="none">
<path d="M1045 5075 l-25 -24 0 -866 0 -865 -187 0 c-138 -1 -193 -4 -205 -14
-26 -19 -38 -61 -38 -131 0 -54 -3 -65 -19 -70 -48 -15 -69 -47 -136 -209
l-69 -166 -71 0 c-65 0 -75 -3 -99 -26 l-26 -27 0 -283 0 -283 24 -28 c22 -25
31 -28 85 -28 l61 0 0 -726 c0 -836 -5 -785 90 -881 43 -43 69 -60 110 -72
120 -36 215 -12 301 73 96 96 89 13 89 1133 l0 978 45 0 45 0 0 -1185 0 -1185
-510 0 c-449 0 -510 -2 -510 -15 0 -14 59 -15 494 -15 272 0 498 0 502 -2 5
-1 19 6 32 17 l22 19 0 1182 c0 1131 -1 1182 -18 1197 -26 23 -94 22 -116 -1
-15 -17 -16 -98 -16 -999 0 -965 0 -980 -20 -1026 -11 -25 -37 -60 -58 -78
-20 -17 -31 -28 -23 -24 9 5 12 4 7 -3 -4 -7 -13 -12 -21 -12 -7 0 -21 -7 -29
-16 -9 -8 -16 -14 -16 -12 0 3 -26 -1 -57 -7 -101 -20 -199 22 -274 117 -19
23 -28 39 -21 34 10 -6 9 0 -2 23 -15 27 -16 111 -17 754 l0 724 -24 23 c-19
18 -33 21 -69 18 -35 -2 -46 0 -46 11 0 8 -3 11 -7 7 -22 -22 -28 48 -23 304
4 226 7 272 20 280 8 5 45 10 81 10 50 0 70 4 81 18 14 16 48 88 94 204 10 25
21 45 24 43 3 -2 6 4 6 13 2 40 3 42 89 119 19 16 25 33 26 65 4 136 -6 130
214 129 171 0 178 1 196 22 17 21 18 61 19 873 l0 852 25 16 c22 15 135 16
1230 16 l1205 0 5 -23 c2 -12 6 -403 7 -869 l3 -847 21 -20 c20 -18 37 -20
185 -21 198 -1 193 -1 204 -14 15 -16 15 -25 15 -346 -1 -346 1 -340 -84 -340
-94 0 -86 73 -86 -826 1 -434 5 -807 10 -829 5 -22 12 -53 16 -70 14 -58 131
-215 148 -198 3 4 6 1 6 -6 0 -7 4 -9 10 -6 6 3 10 2 10 -3 0 -5 12 -15 28
-22 27 -14 35 -17 60 -19 7 0 11 -5 8 -9 -3 -5 14 -10 37 -11 190 -9 258 13
359 114 50 50 97 127 116 190 4 11 8 488 9 1060 2 572 4 1241 6 1488 1 246 -2
447 -6 447 -5 0 -5 5 -2 11 15 23 -27 49 -80 49 -32 0 -57 5 -64 14 -16 19
-17 557 -1 582 10 16 23 19 81 17 58 -1 73 2 86 17 21 24 73 147 66 154 -4 3
-1 6 5 6 7 0 11 3 10 8 -3 8 51 141 66 160 5 8 27 21 48 29 21 8 38 19 38 25
0 5 4 7 9 4 5 -3 14 1 21 9 7 8 19 15 26 15 8 0 14 5 14 11 0 5 5 7 11 3 6 -3
14 -3 18 2 3 5 23 17 43 26 l37 17 21 -28 c11 -16 20 -38 20 -48 0 -22 -29
-53 -50 -53 -7 0 -22 -8 -33 -17 -13 -12 -17 -13 -12 -4 5 9 -5 5 -22 -7 -17
-12 -36 -22 -41 -22 -6 0 -22 -14 -36 -31 -14 -17 -26 -27 -26 -22 -1 7 -28
-59 -34 -82 -1 -5 -9 -23 -18 -40 -8 -16 -21 -47 -28 -68 -11 -34 -10 -40 6
-52 10 -7 28 -11 39 -9 32 6 71 -35 66 -68 0 -3 -1 -126 -1 -272 -1 -190 -4
-264 -12 -260 -6 4 -18 -2 -26 -12 -8 -11 -16 -15 -19 -8 -5 14 -76 2 -98 -16
-13 -11 -15 -183 -15 -1514 0 -1419 -1 -1505 -18 -1566 -10 -36 -30 -83 -44
-105 -14 -22 -26 -43 -27 -47 0 -5 -9 -16 -18 -26 -10 -10 -27 -30 -38 -43
-11 -13 -40 -38 -65 -54 -25 -17 -48 -34 -51 -38 -3 -5 -10 -8 -15 -8 -15 1
-64 -23 -64 -32 0 -5 -4 -6 -8 -3 -4 3 -28 0 -53 -5 -69 -16 -196 -12 -272 9
-37 10 -64 22 -60 27 5 4 1 6 -7 3 -16 -6 -20 -4 -85 47 -80 63 -95 77 -89 86
3 5 -1 9 -9 9 -7 0 -22 16 -33 37 -10 20 -27 51 -36 68 -48 91 -48 102 -48
966 0 744 -1 814 -16 831 -22 24 -96 25 -115 1 -12 -13 -15 -214 -17 -1194
l-3 -1177 22 -21 c23 -21 25 -21 766 -21 l743 0 0 -55 0 -55 -2525 0 c-2238 0
-2525 -2 -2525 -15 0 -13 289 -15 2540 -15 l2540 0 0 85 0 85 -762 0 -763 0 0
1185 0 1185 43 0 42 0 0 -812 c0 -675 3 -823 15 -874 100 -424 621 -573 925
-265 36 36 80 93 97 126 67 128 63 27 63 1684 l0 1501 60 0 c51 0 65 4 85 25
l25 24 0 286 0 286 -25 24 c-17 18 -35 25 -63 25 l-40 0 48 113 47 112 121 63
122 63 -36 72 c-20 40 -38 74 -40 76 -7 8 -288 -146 -302 -167 -8 -12 -43 -91
-78 -175 l-63 -152 -74 -3 c-65 -2 -77 -6 -98 -28 l-24 -26 0 -283 0 -283 24
-26 c21 -22 33 -26 83 -26 l58 0 0 -1488 c0 -1654 5 -1541 -67 -1650 -20 -29
-60 -71 -91 -92 -228 -164 -547 -31 -592 246 -6 34 -10 381 -10 840 l0 782 62
4 c51 4 65 9 85 32 l23 27 0 315 c0 330 -4 362 -45 378 -9 3 -97 6 -196 6
l-179 0 -2 864 -3 864 -24 26 -24 26 -1219 0 -1219 0 -24 -25z"/>
<path d="M1178 4941 c-17 -17 -18 -136 -18 -2213 0 -1820 2 -2197 13 -2207 10
-8 327 -11 1115 -13 1092 -3 1101 -3 1112 17 12 23 20 4385 7 4385 -4 0 -6 3
-5 8 0 4 -2 15 -6 24 -8 17 -74 18 -1105 17 -1037 0 -1097 -1 -1113 -18z
m2212 -2211 l0 -2200 -1102 0 -1103 0 0 2200 0 2200 1103 0 1102 0 0 -2200z"/>
<path d="M1382 4737 l-22 -23 0 -774 c0 -426 0 -785 0 -798 0 -13 12 -34 26
-47 l27 -25 873 0 873 0 28 24 28 24 3 769 c2 422 0 783 -3 801 -3 17 -16 41
-27 52 -21 20 -36 20 -903 20 l-882 0 -21 -23z m1792 -22 c13 -17 15 -120 16
-797 0 -427 -3 -783 -6 -792 -3 -9 -12 -16 -20 -16 -8 0 -14 -4 -14 -10 0 -6
-297 -9 -866 -7 l-867 2 -18 25 c-18 24 -19 61 -19 799 0 685 1 777 15 798
l16 24 874 -3 c861 -3 874 -3 889 -23z"/>
<path d="M1512 4608 c-8 -8 -12 -59 -12 -165 0 -143 1 -153 20 -163 16 -8 28
-8 50 4 17 8 43 17 60 21 16 4 30 11 30 16 0 6 4 8 9 4 5 -3 12 -1 16 5 3 5
17 10 31 10 13 0 24 5 24 10 0 6 15 10 34 10 19 0 38 5 41 10 3 6 20 10 36 10
16 0 46 7 66 15 39 17 181 35 216 29 18 -4 19 -3 4 4 -10 4 58 8 152 7 94 0
171 -3 171 -6 0 -5 18 -7 103 -9 15 0 27 -4 27 -8 0 -4 33 -14 73 -21 39 -7
98 -22 131 -32 32 -11 67 -19 78 -19 12 0 16 -4 12 -12 -5 -7 -3 -8 6 -3 7 4
15 3 19 -3 4 -7 37 -19 74 -29 54 -14 69 -15 79 -5 9 9 14 56 15 155 2 118 0
144 -14 159 -15 17 -59 18 -778 18 -578 0 -764 -3 -773 -12z m1538 -166 c0
-152 0 -153 -21 -141 -41 21 -235 90 -309 109 -195 49 -480 67 -660 40 -154
-22 -418 -98 -512 -146 l-28 -15 0 149 c0 82 2 151 4 153 2 2 347 4 765 4
l761 0 0 -153z"/>
<path d="M2125 4319 c-49 -5 -101 -13 -115 -18 -14 -6 -38 -12 -55 -15 -97
-15 -251 -62 -280 -86 -8 -7 -15 -9 -15 -6 0 4 -10 1 -22 -6 -13 -6 -31 -13
-41 -15 -31 -5 -75 -32 -91 -55 -14 -19 -16 -63 -16 -279 0 -247 1 -257 21
-275 20 -18 44 -19 410 -22 336 -2 393 -1 419 13 16 8 30 19 30 23 0 5 14 23
31 40 17 18 28 32 24 32 -3 0 0 6 7 13 7 8 36 40 63 72 28 32 64 73 80 91 17
17 31 36 32 41 1 5 17 25 35 44 18 19 44 50 58 67 29 37 33 38 62 12 13 -10
31 -25 42 -33 18 -13 18 -15 -5 -42 -13 -15 -31 -35 -40 -44 -8 -9 -26 -32
-39 -51 -14 -19 -39 -51 -56 -70 -49 -53 -134 -162 -134 -170 0 -4 7 -14 16
-21 13 -11 74 -15 262 -18 149 -2 242 0 239 6 -3 5 3 16 14 23 18 14 19 28 19
263 0 308 1 306 -104 339 -39 13 -72 26 -74 30 -2 5 -12 8 -23 8 -11 0 -37 9
-57 19 -60 31 -174 60 -292 76 -200 26 -253 28 -405 14z m410 -44 c113 -18
229 -51 390 -112 l125 -48 0 -267 0 -267 -249 -3 c-221 -3 -248 -1 -237 12 19
23 205 248 254 307 l42 51 -61 51 c-33 28 -64 51 -68 51 -4 0 -95 -105 -202
-234 l-194 -235 -408 0 -407 -1 2 267 3 267 80 33 c340 139 615 177 930 128z"/>
<path d="M2605 3991 c-3 -5 -2 -12 3 -15 5 -3 9 1 9 9 0 17 -3 19 -12 6z"/>
<path d="M2860 3991 c0 -6 4 -13 10 -16 6 -3 7 1 4 9 -7 18 -14 21 -14 7z"/>
<path d="M2509 3893 c-13 -16 -12 -17 4 -4 9 7 17 15 17 17 0 8 -8 3 -21 -13z"/>
<path d="M2529 3883 c-13 -16 -12 -17 4 -4 9 7 17 15 17 17 0 8 -8 3 -21 -13z"/>
<path d="M2850 3896 c0 -2 7 -7 16 -10 8 -3 12 -2 9 4 -6 10 -25 14 -25 6z"/>
<path d="M2853 3859 c-1 -10 3 -19 8 -19 6 0 8 4 5 9 -4 5 -1 11 6 13 8 3 7 6
-3 10 -10 4 -15 -1 -16 -13z"/>
<path d="M2486 3842 c-3 -5 1 -9 9 -9 8 0 12 4 9 9 -3 4 -7 8 -9 8 -2 0 -6 -4
-9 -8z"/>
<path d="M2409 3743 c-13 -16 -12 -17 4 -4 9 7 17 15 17 17 0 8 -8 3 -21 -13z"/>
<path d="M2696 3698 c3 -5 10 -6 15 -3 13 9 11 12 -6 12 -8 0 -12 -4 -9 -9z"/>
<path d="M1530 3429 c0 -6 -4 -8 -9 -5 -15 10 -21 -22 -21 -109 0 -56 4 -86
13 -93 9 -8 240 -11 765 -12 662 0 755 2 776 15 21 14 23 22 21 95 -3 134 86
121 -792 120 -490 -1 -753 -5 -753 -11z m1520 -104 l0 -85 -765 0 -765 0 0 85
0 85 765 0 765 0 0 -85z"/>
<path d="M3200 3061 c0 -6 4 -13 10 -16 6 -3 7 1 4 9 -7 18 -14 21 -14 7z"/>
<path d="M2278 2550 c-32 -19 -397 -411 -423 -453 -157 -268 -54 -608 226
-746 318 -156 683 18 765 366 28 120 6 257 -61 375 -27 49 -374 422 -419 452
-28 18 -63 20 -88 6z m42 -20 c-16 -10 -13 -11 32 -14 16 0 28 -4 28 -8 0 -14
35 -45 44 -40 5 3 6 1 3 -5 -3 -5 6 -23 21 -39 15 -17 20 -21 12 -10 -8 12 -1
8 18 -8 22 -21 31 -36 27 -50 -3 -12 -2 -16 1 -9 7 15 44 -5 44 -24 0 -6 9
-15 20 -18 11 -3 20 -10 20 -15 0 -5 14 -24 30 -42 17 -18 30 -28 30 -23 0 5
8 -2 17 -15 9 -14 23 -29 30 -33 7 -5 11 -12 8 -18 -4 -5 -2 -9 4 -9 16 0 72
-91 98 -160 40 -104 32 -276 -15 -365 -9 -16 -16 -34 -17 -38 0 -4 -7 -12 -15
-17 -8 -5 -11 -10 -7 -10 5 0 -1 -14 -13 -30 -12 -17 -26 -28 -31 -25 -8 6
-13 -8 -10 -27 0 -5 -5 -8 -13 -8 -8 0 -16 -7 -20 -15 -6 -16 -76 -62 -88 -57
-5 1 -7 -2 -5 -7 1 -5 -2 -10 -8 -11 -5 -1 -19 -7 -30 -13 -11 -6 -23 -10 -27
-9 -5 1 -8 -2 -8 -6 0 -32 -248 -46 -314 -18 -20 8 -40 15 -44 16 -22 2 -80
35 -76 42 3 5 2 7 -3 6 -14 -5 -73 24 -74 36 -1 6 -1 20 0 31 0 11 -2 14 -5 8
-9 -20 -21 -16 -55 20 -30 31 -54 74 -51 89 1 5 -1 7 -6 5 -4 -1 -8 1 -9 6 -2
4 -10 21 -19 38 -8 17 -17 38 -19 47 -3 10 -9 35 -14 57 -9 37 -8 93 2 185 5
45 52 156 84 198 14 19 47 57 74 84 27 28 49 55 49 61 0 5 7 4 15 -3 13 -11
14 -10 9 4 -5 12 6 28 37 54 24 20 47 36 52 34 5 -1 5 2 2 9 -8 12 44 71 57
63 4 -3 8 0 8 6 0 15 76 90 90 90 6 0 9 4 6 8 -2 4 5 9 17 9 17 2 19 0 7 -7z"/>
<path d="M2163 2215 c-186 -196 -216 -247 -221 -376 -2 -48 0 -94 5 -102 5 -9
8 26 8 86 0 93 3 107 29 159 16 31 65 94 109 140 202 211 235 248 224 248 -3
0 -72 -70 -154 -155z"/>
<path d="M2330 2356 c0 -4 24 -34 54 -65 281 -291 294 -310 303 -440 4 -59 1
-91 -12 -130 -9 -29 -15 -54 -12 -57 11 -11 37 100 37 159 0 79 -20 149 -60
207 -34 50 -309 340 -310 326z"/>
<path d="M1960 1700 c0 -8 5 -22 10 -30 9 -13 10 -13 10 0 0 8 -5 22 -10 30
-9 13 -10 13 -10 0z"/>
<path d="M1997 1623 c47 -74 155 -152 232 -168 85 -18 173 -10 249 22 57 24
29 25 -43 2 -137 -44 -287 -6 -385 97 -27 29 -50 58 -50 63 0 6 -5 11 -10 11
-6 0 -3 -12 7 -27z"/>
<path d="M2635 1631 c-3 -11 -31 -43 -62 -71 -30 -28 -53 -53 -51 -55 2 -3 25
14 51 36 46 41 94 109 77 109 -5 0 -11 -9 -15 -19z"/>
<path d="M2308 1503 c6 -2 18 -2 25 0 6 3 1 5 -13 5 -14 0 -19 -2 -12 -5z"/>
<path d="M2184 2532 c3 -18 18 -20 24 -4 1 5 -4 12 -12 15 -9 4 -13 0 -12 -11z"/>
<path d="M2430 2527 c0 -2 6 -10 14 -16 11 -9 16 -9 22 1 4 7 4 10 -1 6 -4 -4
-14 -3 -22 3 -7 6 -13 9 -13 6z"/>
<path d="M2101 2467 c-6 -6 -11 -16 -11 -21 0 -6 5 -3 11 6 5 10 16 15 24 12
8 -4 15 -4 15 -1 0 11 -28 15 -39 4z"/>
<path d="M2506 2461 c-3 -5 0 -14 8 -20 10 -9 17 -7 27 6 13 16 12 17 -3 4
-16 -12 -22 -9 -19 12 1 10 -7 9 -13 -2z"/>
<path d="M2010 2385 c0 -5 5 -17 10 -25 5 -8 10 -10 10 -5 0 6 -5 17 -10 25
-5 8 -10 11 -10 5z"/>
<path d="M2619 2363 c-13 -16 -12 -17 4 -4 16 13 21 21 13 21 -2 0 -10 -8 -17
-17z"/>
<path d="M2620 2340 c-9 -6 -10 -10 -3 -10 6 0 15 5 18 10 8 12 4 12 -15 0z"/>
<path d="M2005 2320 c-4 -6 -11 -7 -17 -4 -7 4 -8 2 -4 -5 6 -9 11 -9 22 0 14
11 18 19 10 19 -3 0 -8 -5 -11 -10z"/>
<path d="M2825 1550 c-3 -5 -1 -10 4 -10 6 0 11 5 11 10 0 6 -2 10 -4 10 -3 0
-8 -4 -11 -10z"/>
<path d="M2746 1448 c3 -5 10 -6 15 -3 13 9 11 12 -6 12 -8 0 -12 -4 -9 -9z"/>
<path d="M2695 1411 c-3 -5 -2 -12 3 -15 5 -3 9 1 9 9 0 17 -3 19 -12 6z"/>
<path d="M4563 4436 c-18 -21 -18 -347 -1 -364 17 -17 182 -16 195 1 5 6 10
82 11 167 3 205 4 204 -108 208 -65 2 -88 -1 -97 -12z m177 -181 l0 -170 -85
0 -85 0 0 170 0 170 85 0 85 0 0 -170z"/>
<path d="M873 3180 c-62 -3 -116 -9 -122 -15 -5 -6 -10 -96 -11 -210 -2 -241
-3 -220 16 -239 12 -13 40 -16 134 -16 94 0 122 3 134 16 14 13 16 48 16 229
l0 214 -27 13 c-20 9 -61 12 -140 8z m147 -237 l0 -213 -130 0 -130 0 0 213 0
212 130 0 130 0 0 -212z"/>
<path d="M3540 3160 c-6 -11 -10 -106 -10 -223 0 -185 2 -205 18 -220 27 -25
253 -25 273 0 11 13 13 59 11 221 -1 112 -7 212 -12 222 -9 17 -24 19 -140 19
-117 0 -131 -2 -140 -19z m270 -217 l0 -213 -127 0 -128 0 2 212 c2 117 3 213
3 213 0 0 56 0 125 0 l125 0 0 -212z"/>
<path d="M565 2824 c-14 -15 -22 -30 -20 -35 3 -4 0 -11 -6 -14 -5 -4 -8 -14
-5 -22 3 -8 1 -11 -4 -8 -17 11 -11 -11 8 -28 22 -20 55 -22 71 -3 17 20 19
78 4 109 -17 33 -18 33 -48 1z m31 -39 c-1 -51 -3 -55 -24 -55 -13 0 -22 3
-20 8 2 4 11 28 22 55 10 26 20 47 21 47 1 0 1 -25 1 -55z"/>
<path d="M327 2572 c-14 -16 -17 -44 -17 -183 l0 -165 28 -15 c18 -10 48 -14
92 -13 36 2 70 3 76 4 27 1 34 51 28 208 -5 126 -10 159 -22 170 -10 7 -46 12
-92 12 -62 0 -80 -4 -93 -18z m183 -182 l0 -170 -85 0 -85 0 0 170 0 170 85 0
85 0 0 -170z"/>
<path d="M662 2577 c-7 -8 -13 -100 -16 -242 -4 -171 -8 -230 -18 -237 -7 -4
-34 -8 -59 -8 -32 0 -52 -6 -67 -20 l-22 -21 3 -718 c2 -621 4 -720 17 -736
13 -17 13 -18 0 -11 -8 5 1 -7 20 -26 41 -39 91 -63 120 -55 11 3 23 1 26 -4
8 -14 26 0 18 14 -4 7 -4 9 1 5 13 -12 42 10 74 57 l31 46 0 969 c0 867 -2
970 -16 984 -19 20 -97 21 -112 3z m98 -982 c0 -1066 4 -1005 -63 -1045 -41
-25 -83 -25 -124 0 -66 40 -63 5 -63 792 l0 714 34 -4 c19 -2 51 1 71 8 59 20
65 46 65 290 l0 210 40 0 40 0 0 -965z"/>
<path d="M4485 871 c-3 -5 -2 -12 3 -15 5 -3 9 1 9 9 0 17 -3 19 -12 6z"/>
<path d="M4415 789 c-4 -6 -4 -13 -1 -16 3 -4 6 -1 6 6 0 7 5 9 12 5 7 -4 8
-3 4 4 -9 15 -13 15 -21 1z"/>
<path d="M1175 366 c-25 -23 -27 -31 -24 -88 2 -35 8 -66 14 -70 6 -5 5 -8 -4
-8 -9 0 -6 -7 9 -20 23 -20 36 -20 1122 -20 755 0 1098 4 1098 11 0 5 4 8 8 5
10 -6 16 40 17 129 0 47 -4 70 -12 70 -6 0 -15 3 -19 7 -4 4 -497 8 -1095 8
l-1088 0 -26 -24z m2215 -91 l0 -85 -1102 0 -1103 0 0 85 0 85 1103 0 1102 0
0 -85z"/>
</g>
</svg>
