<?xml version="1.0" standalone="no"?>
<!DOCTYPE svg PUBLIC "-//W3C//DTD SVG 20010904//EN"
 "http://www.w3.org/TR/2001/REC-SVG-20010904/DTD/svg10.dtd">
<svg version="1.0" xmlns="http://www.w3.org/2000/svg"
 width="600.000000pt" height="600.000000pt" viewBox="0 0 600.000000 600.000000"
 preserveAspectRatio="xMidYMid meet">
<g transform="translate(0.000000,600.000000) scale(0.100000,-0.100000)"
fill="#000000" stroke="none">
<path d="M2659 4783 c-13 -3 -13 -16 5 -118 11 -63 25 -115 31 -115 30 1 33
15 19 95 -23 138 -25 145 -32 144 -4 -1 -14 -3 -23 -6z"/>
<path d="M2980 4700 c0 -83 1 -90 20 -90 19 0 20 7 20 90 0 83 -1 90 -20 90
-19 0 -20 -7 -20 -90z"/>
<path d="M3295 4688 c-10 -57 -20 -108 -22 -115 -4 -10 34 -30 42 -21 4 3 44
222 42 224 -1 1 -11 4 -23 8 -20 6 -22 0 -39 -96z"/>
<path d="M2924 4724 c3 -26 6 -57 6 -70 0 -13 5 -24 10 -24 6 0 10 30 10 70 0
58 -3 70 -16 70 -14 0 -16 -8 -10 -46z"/>
<path d="M3050 4700 c0 -56 3 -70 15 -70 12 0 15 14 15 70 0 56 -3 70 -15 70
-12 0 -15 -14 -15 -70z"/>
<path d="M2794 4743 c3 -10 6 -42 7 -70 2 -36 7 -53 16 -53 14 0 16 24 7 94
-5 30 -12 46 -21 46 -9 0 -12 -7 -9 -17z"/>
<path d="M2860 4718 c0 -55 9 -88 24 -88 7 0 10 21 8 65 -3 48 -7 65 -18 65
-10 0 -14 -12 -14 -42z"/>
<path d="M3116 4729 c-11 -55 -7 -99 8 -99 11 0 15 17 18 65 2 44 -1 65 -8 65
-6 0 -14 -14 -18 -31z"/>
<path d="M3180 4736 c0 -13 -3 -44 -6 -70 -6 -38 -4 -46 10 -46 12 0 16 10 16
39 0 21 3 53 6 70 5 24 3 31 -10 31 -10 0 -16 -8 -16 -24z"/>
<path d="M2736 4688 c6 -61 17 -88 30 -76 3 4 3 36 -1 72 -5 47 -11 66 -22 66
-11 0 -13 -12 -7 -62z"/>
<path d="M3243 4738 c0 -7 -3 -39 -7 -70 -6 -49 -5 -58 8 -58 10 0 16 9 16 24
0 13 3 44 6 70 5 37 4 46 -8 46 -8 0 -15 -6 -15 -12z"/>
<path d="M2604 4708 c3 -13 9 -42 13 -66 6 -41 18 -60 30 -48 3 3 0 35 -7 71
-9 46 -17 65 -27 65 -11 0 -14 -6 -9 -22z"/>
<path d="M3367 4693 c-3 -21 -9 -53 -12 -70 -6 -26 -4 -33 7 -33 10 0 18 14
21 38 4 20 9 52 13 70 5 25 3 32 -8 32 -10 0 -17 -13 -21 -37z"/>
<path d="M3430 4682 c-21 -81 -23 -102 -9 -102 20 0 50 127 32 134 -8 3 -16
-9 -23 -32z"/>
<path d="M2544 4688 c3 -13 9 -40 12 -61 6 -36 19 -55 30 -44 3 3 0 32 -7 66
-8 42 -16 61 -26 61 -11 0 -14 -6 -9 -22z"/>
<path d="M2478 4695 c-9 -9 36 -135 47 -131 12 4 12 5 -9 79 -15 52 -24 65
-38 52z"/>
<path d="M3486 4642 c-19 -69 -20 -85 -4 -80 12 4 48 124 40 133 -13 13 -20 1
-36 -53z"/>
<path d="M2345 4670 c-3 -5 6 -43 21 -85 20 -57 31 -75 45 -75 23 0 22 -1 6
41 -8 19 -22 55 -31 82 -17 46 -29 57 -41 37z"/>
<path d="M2418 4674 c-10 -9 35 -135 47 -130 12 4 12 5 -9 79 -15 53 -24 65
-38 51z"/>
<path d="M3543 4616 c-16 -51 -18 -66 -8 -70 9 -3 20 15 34 57 18 58 19 77 2
77 -4 0 -16 -29 -28 -64z"/>
<path d="M3600 4608 c-34 -100 -34 -98 -13 -98 13 0 24 18 41 68 37 105 36
102 15 102 -15 0 -24 -16 -43 -72z"/>
<path d="M2301 4631 c-9 -6 -6 -22 16 -69 17 -38 32 -59 39 -54 16 11 -38 133
-55 123z"/>
<path d="M3661 4573 c-14 -37 -18 -60 -12 -66 7 -7 17 5 29 34 32 73 35 89 19
89 -8 0 -24 -24 -36 -57z"/>
<path d="M2237 4603 c-8 -14 45 -123 60 -123 8 0 13 4 11 8 -1 4 -14 33 -27
65 -23 54 -34 66 -44 50z"/>
<path d="M3720 4552 c-26 -60 -27 -65 -12 -70 11 -3 63 108 56 120 -10 17 -20
6 -44 -50z"/>
<path d="M2170 4577 c0 -2 14 -32 31 -67 20 -42 34 -59 40 -53 13 13 -39 123
-58 123 -7 0 -13 -1 -13 -3z"/>
<path d="M3776 4524 c-19 -40 -24 -60 -17 -67 13 -13 9 -17 44 56 31 66 31 67
14 67 -7 0 -25 -25 -41 -56z"/>
<path d="M2038 4559 c-15 -8 -11 -20 39 -107 31 -53 58 -98 59 -100 1 -2 11 1
22 7 19 10 18 15 -36 111 -32 55 -59 100 -62 100 -3 -1 -13 -5 -22 -11z"/>
<path d="M3879 4471 c-54 -96 -55 -100 -35 -109 19 -8 26 0 79 91 46 78 56
101 45 108 -25 16 -33 8 -89 -90z m51 29 c-6 -11 -13 -20 -16 -20 -2 0 0 9 6
20 6 11 13 20 16 20 2 0 0 -9 -6 -20z"/>
<path d="M2120 4538 c1 -7 13 -36 29 -65 19 -35 31 -49 40 -44 10 6 5 22 -19
65 -30 53 -50 71 -50 44z"/>
<path d="M3831 4490 c-25 -47 -29 -60 -17 -60 12 0 47 53 74 113 2 4 -3 7 -11
7 -8 0 -29 -27 -46 -60z"/>
<path d="M2744 4500 c-48 -19 -57 -147 -14 -182 28 -23 42 -23 71 1 18 14 23
31 27 79 4 55 2 63 -21 86 -28 28 -31 29 -63 16z m56 -60 c11 -40 -4 -110 -25
-117 -32 -9 -57 56 -44 116 13 62 52 63 69 1z"/>
<path d="M3349 4481 c-33 -34 -38 -79 -15 -135 16 -38 45 -52 75 -36 30 16 41
43 41 100 0 41 -5 56 -25 75 -31 32 -40 31 -76 -4z m73 -39 c10 -39 -6 -107
-27 -116 -8 -3 -21 2 -30 10 -18 19 -21 114 -3 132 22 22 51 10 60 -26z"/>
<path d="M2583 4440 c-24 -33 -43 -65 -43 -70 0 -6 20 -10 45 -10 43 0 45 -1
45 -30 0 -23 4 -28 16 -23 11 4 14 13 10 29 -5 17 -2 24 9 24 8 0 15 5 15 10
0 6 -7 10 -16 10 -12 0 -14 11 -11 60 5 80 -14 80 -70 0z m44 -57 c-3 -2 -17
-3 -31 -1 l-25 3 27 41 27 41 3 -40 c2 -21 1 -41 -1 -44z"/>
<path d="M3190 4486 c0 -7 -3 -28 -6 -45 -6 -29 -5 -31 23 -31 35 0 53 -16 53
-46 0 -29 -14 -37 -57 -36 -38 2 -44 -13 -9 -22 47 -12 96 23 96 68 0 24 -37
56 -64 56 -19 0 -22 4 -18 25 4 22 10 25 43 25 22 0 39 5 39 10 0 6 -22 10
-50 10 -36 0 -50 -4 -50 -14z"/>
<path d="M2006 4482 c-8 -13 65 -121 79 -116 10 4 3 22 -23 65 -36 58 -46 67
-56 51z"/>
<path d="M3942 4433 c-45 -77 -26 -93 21 -17 32 53 38 74 19 74 -4 0 -22 -26
-40 -57z"/>
<path d="M1955 4450 c-9 -15 66 -123 78 -111 5 5 -6 31 -29 65 -40 61 -40 61
-49 46z"/>
<path d="M3997 4403 c-25 -38 -34 -60 -27 -67 5 -5 11 -8 13 -5 2 2 18 28 37
57 46 75 25 89 -23 15z"/>
<path d="M1903 4413 c-9 -3 1 -24 29 -64 27 -37 45 -56 52 -49 6 6 -5 29 -29
65 -21 30 -39 55 -39 54 -1 0 -7 -3 -13 -6z"/>
<path d="M4048 4364 c-42 -58 -44 -64 -25 -64 19 0 89 107 74 113 -6 2 -29
-20 -49 -49z"/>
<path d="M1855 4370 c-4 -6 5 -29 20 -50 34 -49 51 -64 65 -55 9 5 -10 34 -71
108 -4 5 -10 4 -14 -3z"/>
<path d="M4098 4330 c-37 -49 -46 -70 -30 -70 15 0 93 100 87 110 -10 17 -18
11 -57 -40z"/>
<path d="M1782 4347 c-16 -18 96 -151 115 -136 10 9 3 24 -34 70 -59 76 -68
83 -81 66z"/>
<path d="M4157 4311 c-21 -27 -47 -58 -58 -70 -17 -18 -17 -21 -3 -29 13 -7
29 5 74 57 42 48 55 69 48 79 -15 18 -20 16 -61 -37z"/>
<path d="M2153 4303 c-25 -10 -13 -25 15 -18 19 4 33 1 41 -8 17 -21 3 -47
-25 -47 -13 0 -24 -4 -24 -10 0 -5 8 -10 18 -10 25 0 54 -33 46 -53 -8 -21
-36 -29 -69 -21 -21 5 -27 4 -23 -7 7 -22 76 -24 99 -3 29 26 23 84 -10 84
-14 1 -14 2 0 13 53 42 -2 107 -68 80z"/>
<path d="M2318 4300 c-60 -35 -37 -190 28 -190 43 0 64 33 64 100 0 47 -4 64
-20 80 -22 22 -46 25 -72 10z m50 -19 c20 -12 27 -85 12 -121 -25 -60 -70 -28
-70 50 0 66 23 94 58 71z"/>
<path d="M3655 4296 c-80 -35 -71 -186 10 -186 53 0 82 62 49 108 -17 24 -44
28 -77 10 -21 -11 -21 -10 -6 13 9 13 30 31 47 39 56 27 35 41 -23 16z m33
-88 c29 -29 3 -84 -35 -76 -25 5 -40 52 -23 72 15 19 41 21 58 4z"/>
<path d="M3775 4290 c-11 -12 -20 -41 -23 -73 -3 -42 0 -57 18 -79 27 -36 62
-36 89 -2 33 42 26 141 -13 166 -20 14 -53 8 -71 -12z m64 -14 c18 -22 10
-126 -11 -139 -30 -19 -48 8 -48 72 0 72 28 104 59 67z"/>
<path d="M1755 4290 c-8 -13 8 -40 48 -78 54 -52 57 -20 3 38 -25 27 -48 45
-51 40z"/>
<path d="M4230 4294 c0 -5 -19 -29 -41 -53 -28 -31 -37 -47 -30 -54 6 -6 12
-9 13 -6 2 2 22 25 46 50 38 40 41 47 27 59 -8 7 -15 9 -15 4z"/>
<path d="M1705 4240 c-11 -17 81 -108 95 -94 7 7 -6 25 -39 58 -33 33 -51 44
-56 36z"/>
<path d="M4240 4205 c-38 -38 -59 -75 -44 -75 13 0 113 104 108 111 -9 15 -19
10 -64 -36z"/>
<path d="M1606 4227 c3 -10 9 -15 12 -12 3 3 0 11 -7 18 -10 9 -11 8 -5 -6z"/>
<path d="M1646 4232 c-3 -5 1 -9 9 -9 8 0 12 4 9 9 -3 4 -7 8 -9 8 -2 0 -6 -4
-9 -8z"/>
<path d="M1657 4196 c-7 -19 90 -108 101 -92 5 7 -11 29 -44 59 -38 35 -53 44
-57 33z"/>
<path d="M4285 4160 c-47 -48 -54 -60 -31 -60 11 0 106 92 106 103 0 2 -7 4
-15 4 -8 0 -35 -21 -60 -47z"/>
<path d="M1614 4149 c-8 -13 86 -100 99 -92 14 8 7 18 -42 61 -33 28 -52 38
-57 31z"/>
<path d="M4326 4114 c-65 -60 -48 -78 19 -19 33 29 47 47 40 53 -7 7 -26 -5
-59 -34z"/>
<path d="M1531 4131 c-9 -15 2 -29 76 -89 80 -66 88 -71 104 -56 16 15 12 21
-71 90 -49 41 -92 74 -94 74 -3 0 -10 -8 -15 -19z m140 -108 c13 -16 12 -17
-3 -4 -17 13 -22 21 -14 21 2 0 10 -8 17 -17z"/>
<path d="M4395 4096 c-33 -28 -73 -61 -89 -73 -24 -19 -26 -25 -16 -38 7 -8
15 -15 19 -15 5 0 145 112 174 139 4 4 -1 15 -10 23 -17 15 -22 12 -78 -36z"/>
<path d="M1800 4110 c-9 -6 -10 -10 -3 -10 6 0 15 5 18 10 8 12 4 12 -15 0z"/>
<path d="M4170 4115 c0 -7 30 -13 34 -7 3 4 -4 9 -15 9 -10 1 -19 0 -19 -2z"/>
<path d="M1530 4046 c0 -13 86 -86 102 -86 21 0 3 29 -41 63 -54 41 -61 44
-61 23z"/>
<path d="M4406 4016 c-28 -25 -44 -46 -38 -50 13 -8 115 72 107 84 -10 16 -17
12 -69 -34z"/>
<path d="M1494 3999 c-7 -12 -7 -11 54 -59 28 -21 47 -29 53 -23 7 7 -9 24
-45 51 -34 26 -57 38 -62 31z"/>
<path d="M4450 3973 c-40 -32 -63 -63 -45 -63 17 0 111 77 107 88 -5 17 -11
15 -62 -25z"/>
<path d="M1455 3950 c-9 -15 1 -26 55 -59 30 -19 52 -26 56 -20 3 6 4 11 3 13
-2 1 -27 19 -56 39 -29 20 -55 32 -58 27z"/>
<path d="M1768 3943 c-10 -2 -18 -11 -18 -19 0 -12 4 -12 20 -4 24 13 56 5 64
-15 9 -24 -9 -57 -53 -100 -23 -21 -41 -43 -41 -47 0 -4 29 -8 65 -8 37 0 65
4 65 10 0 6 -21 10 -46 10 l-47 0 42 45 c48 52 55 94 19 119 -22 16 -37 18
-70 9z"/>
<path d="M1928 3940 c-40 -24 -47 -132 -11 -172 36 -40 98 -11 103 47 11 103
-31 160 -92 125z m56 -32 c30 -43 14 -138 -23 -138 -25 0 -41 28 -41 74 0 76
33 109 64 64z"/>
<path d="M4010 3936 c0 -11 11 -14 45 -11 25 1 45 0 45 -4 0 -3 -18 -42 -40
-86 -22 -44 -40 -81 -40 -82 0 -2 6 -3 13 -3 13 0 97 164 97 189 0 7 -23 11
-60 11 -45 0 -60 -4 -60 -14z"/>
<path d="M4183 3928 c-33 -35 -34 -127 -3 -158 49 -49 104 -10 104 73 1 93
-52 137 -101 85z m67 -17 c5 -11 10 -38 10 -61 0 -51 -15 -80 -41 -80 -37 0
-53 95 -23 138 19 27 40 28 54 3z"/>
<path d="M4486 3920 c-21 -16 -43 -31 -50 -33 -8 -3 -8 -8 -1 -16 8 -8 25 -1
63 24 50 34 66 55 40 55 -7 0 -30 -14 -52 -30z"/>
<path d="M1420 3886 c0 -19 101 -79 113 -67 6 6 -11 22 -47 45 -63 40 -66 41
-66 22z"/>
<path d="M4512 3863 c-29 -20 -49 -40 -44 -45 10 -10 122 53 118 66 -5 19 -22
14 -74 -21z"/>
<path d="M1357 3846 c-4 -10 19 -29 71 -59 63 -37 79 -42 85 -30 5 8 7 16 5
17 -11 10 -145 86 -150 86 -3 0 -8 -6 -11 -14z"/>
<path d="M4403 3845 c0 -8 4 -12 9 -9 5 3 6 10 3 15 -9 13 -12 11 -12 -6z"/>
<path d="M4550 3819 c-36 -21 -65 -46 -65 -54 0 -22 8 -20 85 22 43 23 69 44
68 52 -5 24 -20 20 -88 -20z"/>
<path d="M1579 3837 c6 -8 7 -18 3 -22 -4 -5 -1 -5 6 -1 10 6 10 11 1 22 -6 8
-14 14 -16 14 -3 0 0 -6 6 -13z"/>
<path d="M1560 3806 c0 -2 8 -10 18 -17 15 -13 16 -12 3 4 -13 16 -21 21 -21
13z"/>
<path d="M1355 3780 c-8 -14 -12 -11 57 -48 41 -23 57 -28 61 -19 7 18 -109
82 -118 67z"/>
<path d="M4579 3756 c-32 -18 -54 -36 -52 -44 6 -16 123 45 123 64 0 19 -6 17
-71 -20z"/>
<path d="M3175 3750 c-3 -5 -1 -10 4 -10 6 0 11 5 11 10 0 6 -2 10 -4 10 -3 0
-8 -4 -11 -10z"/>
<path d="M2949 3736 c-2 -2 -3 -42 -1 -89 3 -80 5 -84 24 -79 19 5 20 10 14
65 -3 33 -6 71 -6 83 0 21 -18 32 -31 20z"/>
<path d="M1325 3720 c-8 -14 -13 -11 58 -43 66 -31 67 -31 67 -14 0 7 -24 24
-52 37 -29 13 -56 25 -60 27 -3 2 -9 -1 -13 -7z"/>
<path d="M3120 3658 c-6 -40 -13 -78 -15 -85 -2 -6 5 -13 15 -16 16 -4 20 6
33 77 14 78 11 95 -15 96 -3 0 -11 -33 -18 -72z"/>
<path d="M4610 3702 c-30 -15 -57 -28 -59 -30 -3 -1 0 -7 6 -13 13 -13 122 39
123 59 0 16 -6 15 -70 -16z"/>
<path d="M2764 3688 c4 -13 14 -51 23 -84 11 -46 19 -61 32 -59 20 2 20 4 -3
93 -15 59 -22 72 -38 72 -16 0 -19 -4 -14 -22z"/>
<path d="M4496 3692 c-3 -5 1 -9 9 -9 8 0 12 4 9 9 -3 4 -7 8 -9 8 -2 0 -6 -4
-9 -8z"/>
<path d="M3285 3613 c-15 -38 -29 -74 -32 -80 -3 -8 3 -13 14 -13 26 0 88 146
66 154 -8 4 -16 6 -18 6 -1 0 -15 -30 -30 -67z"/>
<path d="M4650 3650 c-36 -16 -65 -34 -65 -39 0 -15 7 -14 61 9 25 11 49 20
54 20 4 0 10 9 13 20 3 11 4 20 4 20 -1 0 -31 -14 -67 -30z"/>
<path d="M1295 3660 c-9 -15 118 -70 127 -56 5 7 -14 21 -50 38 -66 31 -69 31
-77 18z"/>
<path d="M2595 3640 c-3 -5 12 -43 33 -85 32 -64 40 -74 50 -62 10 11 6 28
-20 85 -31 67 -49 85 -63 62z"/>
<path d="M4465 3629 c-11 -6 -60 -35 -110 -64 -49 -29 -187 -106 -305 -173
-118 -66 -264 -147 -324 -181 -106 -59 -125 -64 -126 -28 0 5 -10 7 -22 5 -19
-2 -23 -10 -25 -38 -1 -33 -1 -33 5 -6 8 35 27 45 35 17 6 -25 -35 -55 -64
-46 -17 6 -18 8 -5 27 20 28 9 48 -23 47 -23 -2 -24 -2 -3 -6 27 -5 28 -24 2
-48 -27 -24 -25 -33 5 -27 14 2 25 2 25 0 0 -3 -84 -52 -187 -108 -104 -57
-200 -112 -215 -122 -27 -19 -28 -18 -48 2 -106 106 -289 28 -290 -123 0 -56
18 -95 60 -131 70 -58 154 -57 224 4 45 40 59 79 54 144 -3 41 -1 56 11 63 9
6 70 41 136 80 66 38 248 145 405 238 157 92 339 200 405 238 66 39 132 79
148 89 l27 19 0 -22 c0 -12 7 -31 17 -41 15 -17 15 -18 0 -18 -18 0 -33 -41
-23 -65 9 -24 52 -36 83 -24 48 18 57 55 22 87 -17 17 -18 20 -5 25 19 8 21
50 4 65 -7 5 -22 12 -33 14 -15 2 -7 10 35 32 66 34 130 74 130 81 0 7 -2 6
-25 -6z m-121 -141 c8 -14 7 -21 -6 -34 -30 -30 -75 9 -48 42 16 18 39 15 54
-8z m-6 -80 c18 -18 14 -46 -7 -58 -23 -12 -47 -5 -55 16 -15 38 34 70 62 42z
m-1315 -511 c18 -8 38 -21 45 -30 12 -14 9 -18 -18 -32 -26 -13 -37 -14 -59
-5 -57 23 -111 -14 -111 -75 0 -40 39 -78 80 -78 39 0 80 38 80 74 0 25 34 59
60 59 17 0 11 -93 -9 -130 -20 -38 -88 -80 -129 -80 -41 0 -110 39 -132 74
-28 47 -27 122 3 167 41 62 120 85 190 56z m107 -41 c0 -2 -8 -10 -17 -17 -16
-13 -17 -12 -4 4 13 16 21 21 21 13z m-186 -48 c-6 -10 -4 -10 8 0 13 10 21
10 43 0 27 -12 27 -13 12 -82 -9 -43 -79 -39 -101 5 -8 17 -10 26 -4 23 7 -5
9 -2 5 8 -6 17 18 58 34 58 6 0 7 -6 3 -12z m112 0 c4 -7 3 -8 -4 -4 -7 4 -12
2 -12 -5 0 -7 -3 -10 -6 -6 -6 5 3 27 11 27 2 0 7 -5 11 -12z"/>
<path d="M2961 2764 c0 -11 3 -14 6 -6 3 7 2 16 -1 19 -3 4 -6 -2 -5 -13z"/>
<path d="M2742 3600 c0 -14 2 -19 5 -12 2 6 2 18 0 25 -3 6 -5 1 -5 -13z"/>
<path d="M1270 3597 c0 -7 24 -21 53 -32 28 -10 58 -20 65 -23 6 -2 12 2 12 9
0 8 -26 24 -58 37 -67 26 -72 26 -72 9z"/>
<path d="M4700 3603 c-73 -28 -102 -45 -94 -53 13 -13 124 30 124 48 0 13 -6
14 -30 5z"/>
<path d="M3433 3531 c-48 -77 -48 -77 -29 -84 20 -8 109 126 93 142 -6 6 -13
11 -16 11 -4 -1 -25 -32 -48 -69z"/>
<path d="M2409 3578 c0 -7 -2 -21 -4 -31 -2 -11 -1 -16 3 -13 8 9 14 56 7 56
-3 0 -5 -6 -6 -12z"/>
<path d="M1191 3557 c-8 -20 -1 -24 93 -59 117 -44 122 -44 129 -19 4 16 -3
23 -37 34 -22 8 -72 26 -109 41 l-68 25 -8 -22z"/>
<path d="M4678 3541 c-96 -35 -106 -43 -90 -69 7 -9 30 -4 103 23 52 19 100
35 107 35 13 0 15 10 6 34 -8 21 -12 20 -126 -23z"/>
<path d="M2443 3542 c-15 -10 86 -141 105 -134 20 6 14 21 -34 80 -51 63 -54
65 -71 54z"/>
<path d="M1655 3505 c-21 -20 -25 -34 -25 -80 0 -46 4 -60 25 -81 59 -59 125
29 96 127 -8 27 -20 43 -37 49 -33 13 -31 14 -59 -15z m59 -11 c18 -18 22 -95
6 -125 -16 -28 -49 -24 -61 9 -14 36 -5 103 17 119 22 16 19 16 38 -3z"/>
<path d="M4437 3510 c-72 -57 -23 -221 53 -180 29 16 40 43 40 100 0 41 -5 56
-25 75 -29 30 -35 31 -68 5z m68 -53 c10 -51 -7 -101 -34 -105 -31 -5 -41 12
-41 72 0 59 22 91 51 76 10 -6 21 -25 24 -43z"/>
<path d="M1504 3506 c-10 -8 -16 -18 -12 -22 4 -4 14 -1 23 6 17 14 17 18 15
-82 -1 -65 1 -78 14 -78 13 0 16 16 16 95 0 85 -2 95 -18 95 -10 0 -27 -6 -38
-14z"/>
<path d="M3043 3505 c-3 -9 -3 -19 1 -22 3 -3 1 -12 -6 -20 -14 -18 2 -36 28
-31 14 2 19 13 21 38 2 44 -30 70 -44 35z m32 -15 c-3 -5 -10 -10 -16 -10 -5
0 -9 5 -9 10 0 6 7 10 16 10 8 0 12 -4 9 -10z m3 -38 c2 -7 -3 -12 -12 -12 -9
0 -16 7 -16 16 0 17 22 14 28 -4z"/>
<path d="M3111 3506 c-7 -8 -11 -27 -9 -43 2 -22 8 -28 28 -28 29 0 38 31 20
64 -13 25 -23 26 -39 7z m29 -36 c0 -31 -16 -41 -26 -15 -8 19 2 45 16 45 5 0
10 -13 10 -30z"/>
<path d="M2822 3494 c-26 -18 -29 -56 -6 -74 12 -11 18 -10 31 3 20 20 11 44
-19 50 l-23 4 23 8 c12 4 22 11 22 16 0 12 -2 12 -28 -7z m21 -49 c1 -5 -6
-11 -15 -13 -11 -2 -18 3 -18 13 0 17 30 18 33 0z"/>
<path d="M2881 3497 c-16 -16 -14 -62 3 -76 12 -10 18 -8 30 11 25 39 -3 95
-33 65z m29 -37 c0 -20 -5 -30 -15 -30 -10 0 -15 10 -15 30 0 20 5 30 15 30
10 0 15 -10 15 -30z"/>
<path d="M1228 3479 c-4 -13 109 -60 125 -52 18 10 3 23 -45 39 -29 9 -58 19
-64 21 -7 2 -14 -1 -16 -8z"/>
<path d="M4698 3469 c-38 -14 -55 -25 -52 -34 4 -10 18 -9 70 8 35 12 64 27
64 34 0 17 -13 16 -82 -8z"/>
<path d="M3491 3457 c-13 -21 -12 -21 5 -5 10 10 16 20 13 22 -3 3 -11 -5 -18
-17z"/>
<path d="M3564 3421 c-51 -49 -58 -59 -46 -70 12 -12 23 -5 74 46 47 47 56 62
46 70 -10 9 -27 -2 -74 -46z"/>
<path d="M3194 3438 c-4 -7 -4 -10 1 -6 4 4 14 3 22 -4 11 -8 17 -8 26 2 9 10
9 11 -1 6 -7 -4 -19 -3 -27 4 -10 8 -15 8 -21 -2z"/>
<path d="M3525 3430 c-3 -6 1 -7 9 -4 18 7 21 14 7 14 -6 0 -13 -4 -16 -10z"/>
<path d="M1207 3417 c-4 -10 11 -19 54 -31 71 -19 79 -20 79 -3 0 7 -21 17
-47 24 -27 6 -55 14 -64 18 -10 4 -19 0 -22 -8z"/>
<path d="M2311 3413 c-11 -12 -10 -17 6 -28 11 -8 39 -30 63 -50 41 -34 65
-41 65 -18 0 6 -27 33 -60 60 -52 44 -62 49 -74 36z"/>
<path d="M4726 3410 c-54 -15 -88 -40 -54 -40 34 0 127 36 120 46 -5 8 -24 6
-66 -6z"/>
<path d="M2584 3378 c-25 -30 -25 -33 -8 -37 10 -2 22 -8 27 -15 5 -8 10 -7
17 4 5 8 6 16 1 18 -4 1 -5 16 -3 32 5 38 0 38 -34 -2z m16 -13 c0 -8 -4 -15
-10 -15 -5 0 -7 7 -4 15 4 8 8 15 10 15 2 0 4 -7 4 -15z"/>
<path d="M2645 3394 c-29 -29 1 -98 32 -72 17 14 17 63 -1 77 -11 9 -18 8 -31
-5z m30 -34 c0 -13 -6 -25 -12 -27 -9 -3 -13 6 -13 27 0 21 4 30 13 28 6 -3
12 -15 12 -28z"/>
<path d="M3243 3403 c-7 -2 -13 -9 -13 -14 0 -6 4 -8 9 -4 6 3 12 -14 14 -37
3 -41 4 -41 5 10 1 28 1 52 0 51 -2 0 -9 -3 -15 -6z"/>
<path d="M3302 3398 c-16 -16 -15 -63 2 -77 31 -26 63 48 34 77 -7 7 -15 12
-18 12 -3 0 -11 -5 -18 -12z m28 -38 c0 -31 -16 -41 -26 -15 -8 19 2 45 16 45
5 0 10 -13 10 -30z"/>
<path d="M3373 3399 c-17 -17 -17 -64 0 -77 30 -25 55 35 29 69 -14 16 -19 18
-29 8z m27 -39 c0 -20 -5 -30 -15 -30 -10 0 -15 10 -15 30 0 20 5 30 15 30 10
0 15 -10 15 -30z"/>
<path d="M2896 3392 c-3 -5 1 -9 9 -9 8 0 12 4 9 9 -3 4 -7 8 -9 8 -2 0 -6 -4
-9 -8z"/>
<path d="M4743 3351 c-39 -10 -63 -21 -63 -30 0 -14 5 -13 93 10 21 6 37 16
37 24 0 8 -1 14 -2 14 -2 -1 -31 -9 -65 -18z"/>
<path d="M1190 3350 c0 -8 22 -16 103 -36 20 -4 27 -2 27 8 0 9 -19 19 -51 26
-61 15 -79 15 -79 2z"/>
<path d="M1610 3336 c0 -2 8 -10 18 -17 15 -13 16 -12 3 4 -13 16 -21 21 -21
13z"/>
<path d="M3690 3306 c-25 -17 -56 -38 -69 -46 -19 -13 -21 -18 -9 -27 10 -9
25 -4 68 23 30 20 61 39 68 43 12 7 7 42 -7 40 -3 -1 -26 -15 -51 -33z"/>
<path d="M2705 3321 c-3 -5 -2 -12 3 -15 5 -3 9 1 9 9 0 17 -3 19 -12 6z"/>
<path d="M1180 3288 c0 -10 14 -18 43 -22 23 -4 52 -9 65 -13 15 -3 22 -1 22
10 0 8 -13 17 -32 20 -18 3 -48 9 -65 13 -26 5 -33 3 -33 -8z"/>
<path d="M4738 3287 c-30 -7 -48 -16 -48 -25 0 -10 7 -12 25 -8 14 4 45 9 70
13 28 3 45 11 45 19 0 16 -23 16 -92 1z"/>
<path d="M2207 3255 c-4 -10 16 -26 69 -53 65 -35 75 -38 83 -23 8 13 -4 23
-62 53 -81 43 -83 43 -90 23z"/>
<path d="M1120 3232 c0 -15 16 -20 90 -33 85 -14 90 -14 90 3 0 19 -6 21 -104
38 -77 13 -76 13 -76 -8z"/>
<path d="M4763 3232 c-68 -13 -81 -19 -80 -34 1 -14 7 -17 27 -14 14 3 53 11
88 17 50 9 62 15 62 30 0 11 -3 18 -7 18 -5 -1 -45 -9 -90 -17z"/>
<path d="M3890 3216 c0 -2 7 -7 16 -10 8 -3 12 -2 9 4 -6 10 -25 14 -25 6z"/>
<path d="M2400 3181 c0 -5 9 -7 20 -4 27 7 26 -18 0 -42 -11 -10 -18 -21 -15
-24 10 -10 44 -11 50 -1 3 6 -2 10 -11 10 -14 0 -15 3 -6 12 7 7 12 22 12 35
0 18 -6 23 -25 23 -14 0 -25 -4 -25 -9z"/>
<path d="M2475 3175 c-3 -8 -7 -22 -10 -30 -4 -15 19 -45 36 -45 14 0 29 45
22 69 -6 24 -41 29 -48 6z m35 -25 c0 -20 -5 -30 -15 -30 -10 0 -15 10 -15 30
0 20 5 30 15 30 10 0 15 -10 15 -30z"/>
<path d="M3420 3180 c0 -5 4 -10 9 -10 6 0 11 -17 13 -37 3 -37 4 -37 8 10 4
40 3 47 -12 47 -10 0 -18 -4 -18 -10z"/>
<path d="M4778 3167 c-47 -7 -68 -15 -68 -24 0 -11 10 -13 48 -8 78 10 92 15
92 30 0 8 -1 14 -2 13 -2 0 -33 -6 -70 -11z"/>
<path d="M1150 3160 c0 -10 19 -15 93 -25 37 -5 47 -3 47 8 0 10 -17 16 -52
21 -73 8 -88 8 -88 -4z"/>
<path d="M3745 3142 c-56 -21 -70 -31 -67 -45 3 -13 9 -16 20 -12 10 4 45 17
80 29 41 14 61 26 60 35 -5 23 -18 22 -93 -7z"/>
<path d="M1147 3096 c-5 -13 0 -16 26 -16 18 0 49 -3 70 -6 30 -5 37 -4 37 10
0 12 -9 16 -34 16 -18 0 -47 3 -63 6 -22 4 -32 2 -36 -10z"/>
<path d="M4763 3103 c-31 -3 -43 -9 -43 -20 0 -13 8 -15 46 -9 26 3 57 6 70 6
15 0 24 6 24 15 0 15 -7 16 -97 8z"/>
<path d="M2140 3082 c0 -25 156 -67 165 -44 3 8 4 16 3 17 -3 3 -156 45 -163
45 -3 0 -5 -8 -5 -18z"/>
<path d="M1140 3034 c0 -13 46 -24 101 -24 27 0 39 4 39 14 0 11 -18 15 -70
18 -47 2 -70 -1 -70 -8z"/>
<path d="M4793 3042 c-50 -2 -63 -6 -63 -19 0 -13 9 -15 62 -9 34 3 63 8 66
10 13 14 -10 21 -65 18z"/>
<path d="M3815 2985 c-5 -2 -31 -6 -56 -10 -39 -5 -46 -9 -42 -24 4 -16 11
-17 56 -9 29 4 66 11 84 14 23 3 30 9 26 19 -5 14 -42 19 -68 10z"/>
<path d="M1136 2965 c-4 -12 6 -15 64 -15 56 0 70 3 70 15 0 12 -14 15 -64 15
-48 0 -65 -4 -70 -15z"/>
<path d="M1401 2954 c-44 -56 -15 -174 43 -174 62 0 91 133 40 184 -23 24 -60
19 -83 -10z m69 -13 c15 -29 12 -104 -4 -127 -30 -40 -73 26 -60 91 11 55 44
73 64 36z"/>
<path d="M4382 2964 c-29 -20 -30 -74 -1 -99 17 -16 25 -17 50 -8 16 6 29 8
29 4 0 -15 -41 -51 -65 -57 -27 -7 -34 -24 -10 -24 26 0 74 29 85 51 7 11 12
40 13 64 3 72 -48 107 -101 69z m68 -23 c15 -30 12 -49 -10 -61 -24 -13 -60 3
-60 26 0 27 20 54 40 54 11 0 24 -9 30 -19z"/>
<path d="M4544 2972 c-33 -22 -45 -107 -22 -157 13 -29 53 -43 77 -28 43 27
53 132 16 173 -18 20 -51 26 -71 12z m56 -31 c14 -28 12 -104 -4 -126 -29 -40
-73 18 -62 83 9 59 45 82 66 43z"/>
<path d="M4730 2965 c0 -13 12 -15 67 -13 42 2 68 8 71 16 3 9 -15 12 -67 12
-57 0 -71 -3 -71 -15z"/>
<path d="M2354 2936 c-10 -27 1 -71 18 -74 25 -5 43 35 29 64 -12 26 -39 32
-47 10z m34 -28 c-3 -34 -20 -42 -26 -13 -5 22 5 45 18 45 7 0 10 -14 8 -32z"/>
<path d="M3500 2940 c-13 -8 -13 -10 2 -10 12 0 18 -11 21 -37 3 -35 4 -34 5
10 2 48 -2 54 -28 37z"/>
<path d="M3576 2925 c-20 -30 -20 -35 -2 -35 8 0 17 -8 21 -17 7 -17 8 -17 14
1 8 22 2 76 -9 76 -4 0 -15 -11 -24 -25z m20 -22 c-10 -10 -19 5 -10 18 6 11
8 11 12 0 2 -7 1 -15 -2 -18z"/>
<path d="M3634 2936 c-10 -27 1 -71 18 -74 25 -5 43 35 29 64 -12 26 -39 32
-47 10z m34 -28 c-3 -34 -20 -42 -26 -13 -5 22 5 45 18 45 7 0 10 -14 8 -32z"/>
<path d="M3848 2923 c7 -3 16 -2 19 1 4 3 -2 6 -13 5 -11 0 -14 -3 -6 -6z"/>
<path d="M4699 2925 c0 0 -2 -10 -3 -22 -3 -23 -1 -23 116 -23 116 0 118 0
118 23 0 22 -2 22 -115 22 -63 0 -115 0 -116 0z"/>
<path d="M2110 2901 c0 -19 6 -21 54 -21 29 0 68 -3 85 -6 27 -6 31 -4 31 15
0 18 -6 21 -47 21 -27 0 -65 3 -85 6 -34 6 -38 4 -38 -15z"/>
<path d="M1070 2885 l0 -25 120 0 120 0 0 25 0 25 -120 0 -120 0 0 -25z"/>
<path d="M4730 2843 c0 -9 18 -14 55 -14 30 -1 60 -2 67 -3 6 -1 13 4 15 11 3
8 -18 12 -66 15 -52 2 -71 0 -71 -9z"/>
<path d="M2365 2810 c-3 -6 1 -7 9 -4 18 7 21 14 7 14 -6 0 -13 -4 -16 -10z"/>
<path d="M3720 2801 c0 -18 6 -21 48 -21 26 0 63 -3 83 -6 31 -5 37 -3 42 15
5 19 1 21 -38 21 -23 0 -63 3 -89 6 -42 6 -46 5 -46 -15z"/>
<path d="M4730 2780 c0 -11 15 -16 65 -18 52 -2 65 0 65 12 0 11 -16 15 -65
18 -53 2 -65 0 -65 -12z"/>
<path d="M4720 2724 c0 -22 130 -38 138 -16 2 6 -5 12 -15 13 -10 0 -42 4 -70
8 -40 6 -53 4 -53 -5z"/>
<path d="M3490 2705 c-14 -8 -19 -14 -12 -15 7 0 12 -14 12 -35 0 -54 18 -41
22 15 1 28 3 50 3 50 0 -1 -11 -7 -25 -15z"/>
<path d="M3546 2694 c-30 -30 -8 -84 29 -70 23 8 19 47 -6 53 -21 6 -21 6 2
19 18 10 20 13 7 14 -9 0 -24 -7 -32 -16z m29 -44 c0 -7 -6 -15 -12 -17 -8 -3
-13 4 -13 17 0 13 5 20 13 18 6 -3 12 -11 12 -18z"/>
<path d="M3604 2686 c-8 -35 4 -66 26 -66 23 0 38 45 23 69 -17 26 -42 25 -49
-3z m36 -21 c0 -37 -13 -47 -24 -19 -8 20 2 54 15 54 5 0 9 -16 9 -35z"/>
<path d="M3750 2690 c-18 -12 -2 -12 25 0 13 6 15 9 5 9 -8 0 -22 -4 -30 -9z"/>
<path d="M3697 2651 c-4 -16 4 -21 57 -35 33 -9 71 -19 84 -22 17 -5 22 -2 22
13 0 15 -14 22 -64 36 -36 9 -71 20 -79 23 -9 3 -16 -2 -20 -15z"/>
<path d="M4710 2661 c0 -9 19 -14 98 -26 33 -5 42 -4 42 8 0 10 -16 16 -52 21
-72 8 -88 8 -88 -3z"/>
<path d="M3897 2629 c7 -7 15 -10 18 -7 3 3 -2 9 -12 12 -14 6 -15 5 -6 -5z"/>
<path d="M4680 2602 c0 -16 9 -20 53 -26 28 -3 69 -9 90 -12 30 -5 37 -3 37 9
0 15 -24 22 -142 43 -33 5 -38 4 -38 -14z"/>
<path d="M2356 2593 c-6 -14 -5 -15 5 -6 7 7 10 15 7 18 -3 3 -9 -2 -12 -12z"/>
<path d="M2420 2580 c0 -5 5 -10 11 -10 5 0 7 5 4 10 -3 6 -8 10 -11 10 -2 0
-4 -4 -4 -10z"/>
<path d="M3580 2580 c-12 -7 -10 -9 7 -7 12 0 19 5 17 9 -6 10 -6 10 -24 -2z"/>
<path d="M1076 2510 c-4 -38 -4 -76 1 -82 5 -8 10 16 13 57 l5 70 19 -62 c10
-35 24 -63 30 -63 7 0 22 28 33 63 l21 62 1 -62 c1 -34 6 -65 11 -68 11 -7 14
95 4 133 -10 36 -26 21 -48 -44 l-20 -59 -20 63 c-11 34 -25 62 -32 62 -7 0
-14 -27 -18 -70z"/>
<path d="M1250 2506 c0 -41 5 -78 10 -81 6 -4 10 8 10 30 0 23 4 35 13 33 31
-6 57 14 57 42 0 32 -23 50 -64 50 -26 0 -26 -1 -26 -74z m68 30 c2 -10 -2
-22 -10 -27 -25 -17 -38 -9 -38 22 0 26 3 30 22 27 13 -2 24 -11 26 -22z"/>
<path d="M1370 2500 c0 -47 4 -80 10 -80 6 0 10 18 10 40 0 39 1 40 35 40 34
0 35 -1 35 -40 0 -22 5 -40 10 -40 6 0 10 33 10 80 0 47 -4 80 -10 80 -5 0
-10 -16 -10 -35 0 -33 -2 -35 -35 -35 -33 0 -35 2 -35 35 0 19 -4 35 -10 35
-6 0 -10 -33 -10 -80z"/>
<path d="M2840 2570 c8 -5 20 -10 25 -10 6 0 3 5 -5 10 -8 5 -19 10 -25 10 -5
0 -3 -5 5 -10z"/>
<path d="M3060 2570 c-8 -5 -10 -10 -5 -10 6 0 17 5 25 10 8 5 11 10 5 10 -5
0 -17 -5 -25 -10z"/>
<path d="M3626 2567 c3 -10 9 -15 12 -12 3 3 0 11 -7 18 -10 9 -11 8 -5 -6z"/>
<path d="M2091 2505 c-1 -38 3 -65 9 -65 5 0 10 10 10 23 l1 22 18 -22 c11
-13 25 -23 32 -23 7 0 3 11 -11 25 -23 24 -23 25 -5 45 10 11 13 20 7 20 -6 0
-18 -10 -26 -22 -16 -22 -16 -21 -16 20 0 69 -17 48 -19 -23z"/>
<path d="M2350 2525 c-22 -51 -37 -103 -26 -94 10 10 56 132 51 137 -2 3 -14
-16 -25 -43z"/>
<path d="M2390 2505 c0 -69 17 -90 22 -27 2 25 8 37 18 37 10 0 16 -12 18 -37
4 -47 22 -50 22 -4 0 37 -21 62 -45 52 -11 -4 -15 1 -15 19 0 14 -4 25 -10 25
-6 0 -10 -28 -10 -65z"/>
<path d="M4692 2538 c2 -6 31 -17 64 -24 76 -16 74 -16 74 0 0 8 -21 17 -57
25 -71 14 -86 14 -81 -1z"/>
<path d="M2180 2483 c0 -23 5 -43 10 -43 6 0 10 15 10 34 0 33 14 55 27 42 4
-3 6 -22 5 -41 -2 -47 16 -45 20 3 2 25 8 37 18 37 10 0 16 -12 18 -37 3 -37
23 -56 21 -20 -3 59 -12 67 -72 68 l-57 1 0 -44z"/>
<path d="M3643 2511 c-8 -13 3 -23 63 -53 84 -44 80 -42 87 -23 4 10 -15 25
-67 53 -64 33 -75 36 -83 23z"/>
<path d="M4148 2486 c-24 -18 -23 -29 2 -21 19 6 20 2 20 -80 0 -58 4 -85 11
-83 7 2 11 41 12 101 2 103 -4 114 -45 83z"/>
<path d="M4287 2483 c-50 -56 -20 -183 43 -183 10 0 28 10 40 22 25 27 28 122
4 156 -19 27 -64 29 -87 5z m73 -29 c24 -61 -3 -144 -42 -129 -27 11 -39 96
-18 136 15 28 49 24 60 -7z"/>
<path d="M4436 2478 c-24 -34 -21 -129 4 -156 36 -38 81 -23 100 34 14 41 6
101 -17 127 -23 24 -68 22 -87 -5z m74 -17 c23 -44 6 -141 -25 -141 -36 0 -57
78 -35 134 11 31 45 35 60 7z"/>
<path d="M4680 2484 c0 -7 17 -18 38 -23 88 -23 92 -24 92 -9 0 9 -23 20 -65
30 -53 12 -65 13 -65 2z"/>
<path d="M3595 2480 c-3 -6 1 -7 9 -4 18 7 21 14 7 14 -6 0 -13 -4 -16 -10z"/>
<path d="M3350 2460 c-9 -6 -10 -10 -3 -10 6 0 14 -17 16 -37 3 -35 4 -34 5
10 1 26 1 47 0 47 -2 0 -10 -5 -18 -10z"/>
<path d="M3406 2458 c-10 -31 -1 -73 18 -76 23 -5 41 12 30 30 -5 7 -8 22 -9
33 0 22 -33 33 -39 13z m31 -24 c-9 -9 -28 6 -21 18 4 6 10 6 17 -1 6 -6 8
-13 4 -17z m3 -29 c0 -8 -7 -15 -15 -15 -16 0 -20 12 -8 23 11 12 23 8 23 -8z"/>
<path d="M3474 2456 c-11 -30 0 -71 20 -71 23 0 36 32 25 63 -9 25 -37 30 -45
8z m36 -37 c0 -19 -5 -29 -15 -29 -15 0 -22 50 -9 63 12 12 24 -4 24 -34z"/>
<path d="M4665 2429 c-9 -14 -10 -13 62 -37 51 -17 62 -18 67 -6 4 10 -11 18
-52 30 -31 9 -60 18 -64 20 -4 3 -10 -1 -13 -7z"/>
<path d="M3560 2385 c-7 -9 -11 -17 -9 -18 2 -2 32 -26 65 -55 54 -45 63 -50
74 -37 7 9 11 17 9 18 -2 1 -32 26 -65 54 -53 45 -64 50 -74 38z"/>
<path d="M4647 2367 c-4 -10 11 -19 51 -31 67 -20 75 -21 80 -8 2 6 -21 18
-50 27 -29 10 -58 20 -64 22 -6 2 -14 -2 -17 -10z"/>
<path d="M3370 2345 c0 -2 6 -8 13 -14 10 -8 14 -7 14 2 0 8 -6 14 -14 14 -7
0 -13 -1 -13 -2z"/>
<path d="M3531 2337 c-8 -10 -7 -14 2 -14 8 0 14 6 14 14 0 7 -1 13 -2 13 -2
0 -8 -6 -14 -13z"/>
<path d="M4597 2318 c-4 -12 -5 -23 -4 -23 20 -13 211 -74 218 -69 5 3 9 13 9
22 0 13 -26 26 -102 52 -55 19 -104 36 -108 38 -4 2 -10 -7 -13 -20z"/>
<path d="M4606 2255 c-4 -12 13 -21 112 -62 6 -3 12 1 12 9 0 21 -117 70 -124
53z"/>
<path d="M4580 2198 c0 -8 25 -25 55 -37 61 -25 68 -27 73 -13 2 8 -23 21
-115 59 -7 3 -13 -1 -13 -9z"/>
<path d="M4829 2193 c-13 -16 -12 -17 4 -4 16 13 21 21 13 21 -2 0 -10 -8 -17
-17z"/>
<path d="M4556 2144 c-6 -15 112 -76 120 -62 8 12 9 11 -58 46 -42 21 -58 26
-62 16z"/>
<path d="M4528 2089 c-4 -11 93 -69 115 -69 31 0 -21 39 -104 78 -4 2 -9 -2
-11 -9z"/>
<path d="M4165 2061 c-3 -5 -2 -12 3 -15 5 -3 9 1 9 9 0 17 -3 19 -12 6z"/>
<path d="M4480 2045 c-9 -11 3 -22 66 -59 43 -24 82 -42 86 -40 15 10 8 31
-14 42 -13 6 -46 24 -75 41 -43 25 -53 28 -63 16z"/>
<path d="M4202 2025 c-44 -32 -46 -142 -2 -177 28 -23 32 -22 63 2 46 36 45
141 -1 176 -22 17 -33 17 -60 -1z m52 -27 c22 -32 20 -100 -3 -129 -19 -23
-20 -23 -38 -6 -33 32 -19 157 18 157 4 0 15 -10 23 -22z"/>
<path d="M4304 2026 c1 -8 5 -18 8 -22 4 -3 5 1 4 10 -1 8 -5 18 -8 22 -4 3
-5 -1 -4 -10z"/>
<path d="M3894 2016 c-10 -8 -16 -18 -12 -22 4 -4 14 -1 23 6 13 11 15 2 15
-74 0 -62 3 -86 13 -86 9 0 12 26 12 95 0 102 -7 113 -51 81z"/>
<path d="M4044 2016 c-10 -8 -16 -18 -12 -22 4 -4 14 -1 23 6 13 11 15 2 15
-74 0 -70 3 -86 15 -86 12 0 15 17 15 95 0 85 -2 95 -18 95 -10 0 -27 -6 -38
-14z"/>
<path d="M4405 1991 c-3 -5 -2 -12 3 -15 5 -3 9 1 9 9 0 17 -3 19 -12 6z"/>
<path d="M4467 1986 c-3 -7 19 -27 53 -49 41 -25 60 -32 63 -23 3 7 -19 27
-53 49 -41 25 -60 32 -63 23z"/>
<path d="M4436 1931 c-5 -8 90 -81 107 -81 22 0 0 29 -43 58 -55 35 -56 36
-64 23z"/>
<path d="M4396 1881 c-9 -13 103 -86 115 -74 7 7 -8 22 -43 46 -56 39 -64 42
-72 28z"/>
<path d="M4366 1843 c-12 -13 -5 -22 45 -58 28 -21 54 -34 59 -29 9 10 -94 96
-104 87z"/>
<path d="M4312 1808 c-7 -7 -12 -15 -12 -19 0 -7 165 -149 174 -149 3 0 10 8
15 18 8 15 -3 29 -67 83 -94 80 -96 81 -110 67z"/>
<path d="M4286 1742 c-3 -5 9 -22 27 -38 49 -46 65 -56 76 -50 5 4 -12 27 -38
51 -50 47 -56 50 -65 37z"/>
<path d="M3538 1706 c-24 -18 -23 -29 2 -21 19 6 20 2 20 -80 0 -124 21 -108
23 18 2 103 -4 114 -45 83z"/>
<path d="M3673 1713 c-7 -2 -13 -11 -13 -18 0 -11 6 -11 30 -2 25 9 33 9 46
-5 22 -22 11 -52 -44 -110 -24 -26 -43 -48 -41 -49 2 0 32 -2 67 -3 49 -2 62
0 62 12 0 11 -10 14 -45 10 l-45 -6 40 44 c42 46 54 96 28 122 -12 12 -62 15
-85 5z"/>
<path d="M3830 1700 c-29 -29 -28 -127 0 -158 53 -57 122 13 105 106 -13 69
-63 94 -105 52z m70 -19 c22 -42 5 -141 -24 -141 -22 0 -46 40 -46 77 0 69 45
110 70 64z"/>
<path d="M4245 1700 c-11 -17 81 -108 95 -94 7 7 -6 25 -39 58 -33 33 -51 44
-56 36z"/>
<path d="M4203 1659 c-6 -6 9 -30 36 -59 29 -31 49 -46 55 -40 6 6 -8 27 -37
58 -27 30 -49 46 -54 41z"/>
<path d="M4376 1617 c3 -10 9 -15 12 -12 3 3 0 11 -7 18 -10 9 -11 8 -5 -6z"/>
<path d="M4421 1617 c-8 -10 -7 -14 2 -14 8 0 14 6 14 14 0 7 -1 13 -2 13 -2
0 -8 -6 -14 -13z"/>
<path d="M4157 1613 c-8 -13 79 -107 92 -99 7 5 -3 24 -31 57 -43 49 -53 56
-61 42z"/>
<path d="M4094 1586 c-4 -11 8 -31 33 -59 21 -23 46 -53 55 -66 14 -20 20 -22
32 -12 14 11 8 22 -41 80 -62 74 -70 80 -79 57z"/>
<path d="M4065 1541 c-8 -14 62 -111 81 -111 8 0 14 3 14 6 0 4 -39 56 -81
107 -4 5 -10 4 -14 -2z"/>
<path d="M4015 1500 c-4 -6 8 -29 26 -53 47 -60 46 -60 58 -53 7 5 -5 27 -30
62 -45 59 -45 59 -54 44z"/>
<path d="M3960 1465 c0 -3 16 -30 35 -60 23 -36 39 -53 49 -49 11 4 6 18 -22
59 -21 30 -43 54 -49 55 -7 0 -13 -2 -13 -5z"/>
<path d="M3916 1431 c-9 -13 54 -111 70 -111 20 0 18 4 -22 65 -40 59 -40 60
-48 46z"/>
<path d="M3848 1420 c-15 -9 -10 -21 37 -101 30 -51 56 -96 58 -102 2 -6 11
-6 25 2 l23 12 -26 42 c-14 23 -40 68 -58 100 -34 61 -34 61 -59 47z"/>
</g>
</svg>
