<?xml version="1.0" standalone="no"?>
<!DOCTYPE svg PUBLIC "-//W3C//DTD SVG 20010904//EN"
 "http://www.w3.org/TR/2001/REC-SVG-20010904/DTD/svg10.dtd">
<svg version="1.0" xmlns="http://www.w3.org/2000/svg"
 width="512.000000pt" height="512.000000pt" viewBox="0 0 512.000000 512.000000"
 preserveAspectRatio="xMidYMid meet">
<g transform="translate(0.000000,512.000000) scale(0.100000,-0.100000)"
fill="#000000" stroke="none">
<path d="M1115 4715 c-119 -24 -226 -85 -330 -190 -191 -190 -350 -416 -485
-690 -143 -289 -225 -550 -270 -860 -21 -149 -27 -335 -10 -335 6 0 10 21 11
48 0 26 3 65 5 87 2 22 6 63 9 90 10 105 14 133 34 230 36 180 92 383 134 485
5 14 11 30 12 35 2 6 26 60 56 120 29 61 54 115 55 120 1 6 25 49 53 97 28 48
52 91 53 95 1 5 6 13 10 18 34 42 98 137 98 145 0 6 4 10 8 10 5 0 13 9 18 19
5 11 26 40 47 65 21 25 38 47 39 50 0 2 35 40 78 85 42 44 75 83 72 86 -3 3 2
5 12 5 9 0 14 5 11 10 -3 6 0 10 7 10 8 0 28 13 46 29 17 17 32 27 32 23 0 -4
4 -2 8 4 9 14 71 44 102 50 14 3 29 9 34 14 5 5 15 6 24 3 8 -4 13 -2 9 3 -3
5 4 10 16 11 12 0 666 1 1453 2 1300 1 1435 0 1470 -15 22 -9 40 -16 42 -15 1
0 4 0 7 0 3 -1 8 -2 13 -3 23 -5 92 -41 92 -49 0 -4 4 -5 10 -2 6 3 10 2 10
-4 0 -5 18 -21 40 -34 22 -13 37 -27 33 -30 -3 -4 2 -7 12 -7 10 0 15 -3 12
-6 -3 -4 5 -15 18 -26 14 -11 22 -25 18 -31 -4 -6 0 -8 10 -4 12 4 14 2 10
-10 -4 -11 -2 -14 5 -9 7 4 12 4 12 -1 0 -4 17 -27 39 -51 21 -23 37 -42 34
-42 -2 0 9 -12 24 -27 16 -16 40 -45 53 -65 14 -21 28 -38 33 -38 4 0 7 -6 7
-13 0 -7 16 -32 35 -54 19 -23 35 -46 35 -52 0 -6 3 -11 8 -11 4 0 13 -14 21
-31 7 -17 28 -53 46 -80 19 -27 31 -49 28 -49 -3 0 2 -8 11 -19 9 -10 18 -28
19 -39 0 -11 5 -18 9 -16 4 3 8 -2 8 -10 0 -9 5 -16 12 -16 6 0 9 -3 6 -6 -4
-3 16 -52 42 -110 27 -57 47 -104 45 -104 -2 0 9 -30 24 -68 39 -95 115 -373
127 -467 1 -11 5 -42 8 -70 3 -27 8 -61 11 -75 6 -27 11 -75 20 -181 14 -155
23 -169 24 -39 2 224 -61 556 -155 820 -97 270 -274 588 -452 810 -170 213
-290 310 -446 364 -61 20 -69 21 -1466 22 -1161 2 -1417 0 -1475 -11z"/>
<path d="M906 4695 c-11 -8 -15 -15 -9 -15 6 0 16 7 23 15 16 19 11 19 -14 0z"/>
<path d="M1198 4605 c-2 -2 -23 -6 -48 -9 -25 -3 -63 -13 -85 -22 -22 -10 -43
-17 -47 -16 -5 1 -8 -3 -8 -9 0 -5 -4 -8 -8 -5 -10 6 -132 -92 -132 -106 0 -5
-4 -6 -10 -3 -5 3 -10 1 -10 -4 0 -6 -8 -19 -17 -29 -47 -46 -106 -115 -88
-103 11 8 7 1 -10 -15 -55 -55 -95 -106 -95 -121 0 -8 -5 -11 -12 -7 -6 4 -8
3 -5 -3 4 -5 -3 -20 -14 -31 -11 -12 -17 -22 -14 -22 4 0 -1 -7 -9 -16 -14
-14 -46 -59 -83 -119 -17 -27 -67 -119 -68 -125 0 -3 -23 -50 -49 -105 -27
-55 -52 -109 -57 -120 -4 -11 -17 -42 -28 -69 -12 -26 -18 -52 -15 -57 3 -5 0
-9 -6 -9 -7 0 -10 -7 -6 -15 3 -8 0 -15 -6 -15 -6 0 -9 -3 -6 -6 4 -3 0 -21
-8 -39 -13 -32 -58 -195 -68 -245 -2 -14 -7 -32 -10 -40 -3 -8 -8 -33 -10 -55
-3 -22 -13 -87 -22 -145 -23 -147 -23 -572 0 -720 9 -58 19 -123 22 -145 7
-49 66 -282 89 -350 64 -187 156 -395 224 -505 12 -19 24 -43 27 -53 4 -9 10
-17 14 -17 4 0 13 -13 19 -28 7 -15 23 -40 36 -54 13 -14 21 -29 18 -32 -4 -3
0 -6 7 -6 7 0 11 -3 7 -6 -3 -4 4 -15 16 -26 12 -11 15 -17 7 -13 -8 4 -2 -5
13 -19 15 -14 26 -26 23 -26 -8 0 22 -36 64 -79 19 -19 24 -26 10 -15 -22 17
1 -10 88 -105 12 -14 22 -28 22 -33 0 -4 7 -5 15 -1 9 3 15 1 13 -5 -4 -13 61
-72 80 -72 9 0 12 -3 9 -7 -10 -9 54 -53 78 -53 12 0 25 -4 31 -10 16 -16 102
-24 257 -22 92 0 147 -3 147 -9 0 -6 4 -8 9 -5 16 10 22 -44 8 -65 -14 -19
-23 -19 -193 -14 -208 6 -214 7 -207 18 3 5 -1 7 -8 6 -30 -6 -131 38 -203 89
-50 35 -82 62 -73 62 3 0 -14 20 -37 44 -61 65 -115 127 -113 131 1 2 -11 13
-26 25 -15 12 -26 25 -23 27 3 3 -10 22 -29 42 -19 20 -35 39 -35 43 0 4 -20
34 -45 67 -25 32 -45 62 -45 65 0 3 -24 45 -53 93 -29 48 -58 99 -64 113 -55
116 -111 238 -118 260 -1 3 -6 16 -12 30 -16 38 -63 182 -68 208 -2 12 -6 26
-9 30 -4 7 -46 182 -60 255 -4 15 -8 37 -11 50 -7 34 -14 95 -20 166 -3 35 -8
67 -10 71 -2 4 -5 36 -6 73 -1 36 -6 71 -11 79 -6 8 -8 -39 -4 -127 23 -614
327 -1305 771 -1751 159 -159 297 -208 571 -202 139 3 147 4 165 27 24 30 24
62 -1 94 -19 24 -22 25 -197 29 -155 4 -186 8 -238 28 -94 36 -158 84 -251
188 -323 363 -533 782 -629 1257 -41 201 -49 299 -49 545 0 246 8 344 49 545
99 492 343 964 671 1301 80 82 123 112 214 145 l65 24 1410 0 1410 0 57 -22
c91 -35 162 -88 255 -192 356 -399 569 -857 655 -1406 31 -201 31 -587 0 -790
-27 -174 -68 -344 -122 -500 -55 -162 -52 -156 -61 -108 -11 57 -50 152 -90
219 -68 112 -221 242 -331 282 l-48 17 0 480 c0 462 -1 482 -21 525 -27 60
-54 88 -114 116 -56 27 -98 30 -159 12 -55 -17 -131 -91 -145 -143 -6 -22 -11
-118 -11 -212 0 -160 2 -175 20 -193 31 -31 72 -30 108 3 21 20 22 27 22 189
0 166 0 169 25 193 13 14 36 25 50 25 14 0 37 -11 50 -25 l25 -24 0 -456 0
-455 -75 0 -75 0 0 163 c0 158 -1 164 -23 185 l-23 22 -636 0 c-603 0 -636 -1
-651 -18 -14 -16 -17 -47 -20 -191 l-2 -173 -28 -24 c-35 -30 -59 -30 -94 0
l-28 24 -2 173 c-2 145 -5 175 -19 190 -16 18 -47 19 -654 19 l-637 0 -21 -23
c-21 -22 -22 -33 -22 -191 0 -164 0 -167 -25 -191 -31 -32 -69 -32 -100 0
l-25 24 0 461 0 461 25 24 c13 14 36 25 50 25 14 0 37 -11 50 -25 25 -24 25
-27 25 -189 0 -160 1 -166 24 -193 l24 -28 631 0 c620 0 631 0 651 20 18 19
20 35 23 192 2 166 3 172 26 197 31 32 62 33 98 2 l28 -24 2 -173 c3 -159 5
-175 23 -194 20 -20 32 -20 476 -20 l456 0 24 28 c29 34 30 56 3 91 l-20 26
-410 0 -409 0 1 133 c0 138 -5 167 -43 218 -83 113 -273 113 -356 0 -38 -51
-43 -80 -43 -218 l1 -133 -530 0 -530 0 0 123 c0 156 -10 190 -69 248 -75 73
-167 87 -259 40 -48 -25 -76 -55 -101 -111 -20 -43 -21 -63 -21 -520 0 -457 1
-477 21 -520 25 -56 53 -86 101 -111 92 -47 184 -33 259 40 59 58 69 92 69
246 l0 120 527 -2 528 -3 2 -112 c2 -147 7 -173 39 -220 87 -126 281 -126 368
0 32 47 37 73 39 220 l2 112 528 3 527 2 0 -126 0 -127 -57 -23 c-189 -76
-344 -244 -410 -444 -24 -71 -27 -96 -27 -220 0 -126 2 -148 27 -220 38 -115
91 -199 182 -291 128 -129 295 -202 476 -207 46 -1 108 2 138 6 48 7 53 6 42
-7 -23 -27 -120 -87 -179 -109 l-57 -22 -1097 -3 -1097 -3 -20 -26 c-26 -32
-27 -64 -2 -94 l19 -24 1069 -3 c1202 -3 1159 -5 1313 70 70 34 101 57 176
133 396 399 666 954 753 1550 18 122 30 397 17 384 -3 -2 -10 -56 -15 -119
-11 -115 -27 -242 -46 -367 -16 -105 -77 -333 -116 -438 -17 -44 -32 -84 -33
-90 -4 -16 -16 -43 -57 -132 -21 -46 -35 -83 -31 -83 4 0 0 -5 -8 -10 -8 -5
-16 -13 -16 -17 -5 -26 -18 -53 -26 -53 -5 0 -6 -4 -3 -10 3 -5 1 -10 -5 -10
-6 0 -9 -4 -5 -9 3 -5 1 -12 -4 -16 -6 -3 -32 -43 -59 -88 -41 -69 -115 -177
-189 -276 -30 -40 -65 -71 -74 -66 -4 3 -6 -3 -4 -13 2 -13 -7 -27 -26 -41
-17 -12 -35 -33 -41 -46 -5 -12 -21 -28 -34 -34 -13 -6 -24 -16 -24 -24 0 -7
-13 -21 -30 -30 -16 -10 -36 -24 -43 -32 -25 -24 -150 -79 -183 -79 -18 -1
-30 -4 -28 -7 2 -4 -17 -9 -44 -12 -69 -7 -2133 -8 -2159 -1 -25 7 -37 34 -28
63 4 13 12 18 22 14 9 -4 14 -2 11 3 -4 5 412 9 1055 9 584 0 1087 4 1117 8
30 4 59 12 64 17 6 6 20 10 33 10 13 0 26 6 29 14 3 8 15 17 27 20 25 6 107
81 107 97 0 25 -31 41 -67 34 -90 -17 -182 -14 -270 9 -48 12 -107 32 -129 44
-23 12 -44 18 -48 15 -3 -4 -6 -1 -6 5 0 6 -9 14 -20 17 -11 3 -26 12 -32 18
-7 7 -33 27 -58 45 -25 18 -45 38 -45 45 0 7 -10 16 -22 22 -12 5 -28 21 -35
35 -7 14 -22 39 -34 55 -29 40 -69 128 -88 193 -27 95 -18 318 16 386 6 12 6
16 -1 12 -14 -9 46 110 76 150 13 17 21 33 18 36 -3 3 6 13 20 22 14 10 23 22
19 28 -5 8 -1 9 12 4 10 -4 16 -4 12 -1 -9 10 61 78 114 111 27 16 48 33 48
37 0 5 5 5 11 2 5 -4 18 -1 27 7 9 8 33 21 52 28 56 22 59 33 60 168 0 109 -2
124 -20 142 -19 19 -34 20 -543 20 l-524 0 -11 -24 c-6 -13 -12 -78 -13 -145
-2 -68 -7 -125 -11 -127 -4 -3 -8 -13 -8 -23 0 -9 -15 -33 -34 -52 -44 -45
-56 -53 -86 -59 -48 -8 -150 -2 -150 11 0 3 -10 10 -23 16 -12 6 -35 29 -51
52 -27 39 -29 48 -34 177 -4 116 -8 140 -24 156 -17 17 -44 18 -533 18 -503
-1 -516 -1 -536 -21 -18 -18 -20 -33 -20 -137 1 -143 0 -150 -24 -187 -40 -62
-85 -86 -164 -90 -78 -3 -140 30 -175 95 l-26 48 0 483 1 483 26 47 c19 36 37
53 72 70 97 46 255 9 241 -56 -1 -5 2 -7 6 -3 9 10 37 -29 41 -57 1 -11 2 -71
2 -134 0 -86 4 -119 16 -137 l16 -24 525 0 c423 1 529 3 539 14 9 9 14 48 16
122 1 60 7 129 12 154 13 63 58 117 109 130 44 12 169 10 162 -2 -3 -5 4 -8
15 -8 21 0 81 -68 81 -92 0 -8 3 -18 7 -22 4 -4 9 -66 11 -138 3 -90 8 -135
17 -144 10 -11 98 -13 415 -14 221 0 405 -2 409 -4 11 -7 5 -68 -8 -75 -5 -4
-23 -6 -38 -5 -15 1 -216 3 -445 3 -287 1 -418 4 -418 12 0 5 5 7 12 3 7 -4 8
-3 4 5 -6 9 -11 9 -22 0 -8 -6 -14 -10 -14 -8 -1 2 -3 74 -6 159 -5 176 -10
216 -26 226 -7 5 -8 2 -4 -7 4 -8 -1 -4 -11 9 -20 25 -93 43 -93 23 0 -6 -4
-10 -9 -9 -5 2 -17 -6 -26 -17 -9 -11 -13 -14 -9 -6 4 9 3 12 -4 7 -16 -10
-21 -50 -26 -224 -4 -133 -7 -156 -23 -167 -10 -7 -21 -11 -24 -9 -4 2 -284 4
-623 4 -396 0 -615 4 -611 10 3 6 1 10 -4 10 -7 0 -11 54 -11 160 0 173 -7
202 -53 233 -28 18 -68 17 -93 -4 -16 -12 -17 -12 -9 1 8 13 7 13 -9 1 -45
-37 -46 -45 -46 -520 0 -438 5 -512 31 -495 5 3 9 -2 9 -10 0 -8 5 -18 12 -22
7 -5 8 -3 3 7 -7 11 -5 11 9 -1 29 -23 64 -23 94 0 46 37 50 55 52 225 0 121
4 163 15 175 12 13 86 15 630 12 370 -1 614 -6 610 -11 -3 -5 0 -13 6 -17 7
-4 9 -3 5 4 -3 6 -2 13 3 16 17 11 23 -29 22 -159 -1 -156 6 -190 49 -235 18
-19 29 -29 25 -22 -6 11 -3 11 14 0 16 -9 26 -10 39 -2 9 6 25 10 35 8 9 -1
14 2 11 8 -3 5 3 18 15 29 19 18 21 32 22 132 2 157 7 228 14 236 4 3 288 8
633 11 648 5 651 5 652 -33 0 -7 1 -78 1 -159 0 -86 4 -148 10 -148 5 0 8 -6
6 -12 -3 -19 141 -19 171 0 l22 14 0 449 c0 436 -5 510 -31 493 -5 -3 -9 2 -9
10 0 8 -5 18 -12 22 -7 5 -8 3 -3 -7 6 -10 3 -10 -11 2 -30 25 -67 21 -105
-10 l-34 -29 -3 -163 c-3 -212 -3 -210 -51 -208 -21 2 -38 8 -38 13 -2 21 -2
341 0 364 1 12 16 38 33 57 17 19 29 35 25 35 -3 1 10 9 29 20 41 21 145 29
175 13 11 -6 25 -12 30 -13 14 -3 51 -30 42 -30 -4 0 1 -10 13 -22 11 -12 25
-38 30 -57 6 -22 10 -228 10 -507 l0 -470 23 -20 c13 -11 28 -19 35 -16 7 2
12 -1 12 -7 0 -6 9 -11 20 -11 25 0 73 -48 63 -63 -4 -7 0 -7 10 1 13 12 21
11 46 -4 16 -9 35 -28 42 -41 7 -13 16 -23 21 -23 5 0 6 6 2 13 -4 7 -3 9 2 4
5 -5 9 -12 9 -16 0 -5 17 -25 38 -46 59 -59 162 -266 150 -301 -2 -6 6 -19 17
-29 16 -14 22 -15 35 -5 8 7 12 16 9 21 -3 5 -2 9 3 9 13 0 110 281 119 345 0
6 4 17 7 25 3 8 8 29 11 45 2 17 7 37 10 45 3 8 8 33 11 55 2 22 12 90 21 150
23 154 23 559 0 710 -9 61 -18 126 -21 145 -3 19 -8 43 -11 52 -3 10 -7 30
-10 45 -24 138 -110 392 -191 563 -64 136 -88 181 -105 199 -9 11 -15 21 -12
23 2 3 -15 34 -39 69 -24 35 -46 72 -50 82 -3 9 -11 17 -17 17 -6 0 -9 4 -6 9
3 5 -1 12 -10 15 -8 3 -12 11 -8 17 4 8 3 9 -4 5 -7 -4 -12 -1 -12 8 0 8 -8
20 -18 25 -9 6 -13 11 -9 11 4 0 -9 18 -30 41 -21 22 -38 44 -38 49 0 8 -108
131 -139 158 -11 10 -35 31 -55 48 -20 17 -46 35 -59 38 -12 4 -19 12 -16 18
4 6 3 8 -3 5 -6 -4 -29 2 -52 13 -22 11 -55 23 -73 27 -34 6 -2783 14 -2790 8z"/>
<path d="M566 4372 c-3 -5 1 -9 9 -9 8 0 12 4 9 9 -3 4 -7 8 -9 8 -2 0 -6 -4
-9 -8z"/>
<path d="M489 4297 c6 -8 7 -18 3 -22 -4 -5 -1 -5 6 -1 10 6 10 11 1 22 -6 8
-14 14 -16 14 -3 0 0 -6 6 -13z"/>
<path d="M4621 4296 c-9 -11 -9 -16 1 -22 7 -4 10 -4 6 1 -4 4 -3 14 3 22 6 7
9 13 6 13 -2 0 -10 -6 -16 -14z"/>
<path d="M806 4152 c-3 -5 1 -9 9 -9 8 0 12 4 9 9 -3 4 -7 8 -9 8 -2 0 -6 -4
-9 -8z"/>
<path d="M2696 4147 c3 -10 9 -15 12 -12 3 3 0 11 -7 18 -10 9 -11 8 -5 -6z"/>
<path d="M2473 4120 c-62 -28 -93 -62 -93 -104 0 -25 7 -40 26 -55 35 -27 53
-26 94 4 41 30 83 32 110 5 51 -51 27 -118 -47 -133 -51 -10 -76 -37 -75 -79
1 -38 32 -68 69 -68 30 0 83 -51 83 -80 0 -26 -52 -80 -77 -80 -10 0 -31 9
-48 20 -40 26 -77 25 -103 -3 -77 -82 62 -190 200 -156 74 17 150 93 168 167
14 60 3 126 -31 173 -19 27 -19 27 5 70 33 61 40 102 26 159 -34 140 -182 217
-307 160z m171 -29 c33 -13 71 -41 76 -56 1 -5 9 -19 16 -30 13 -20 21 -122
12 -157 -2 -9 -11 -25 -19 -35 -29 -34 -30 -54 -4 -98 36 -62 40 -147 8 -197
-12 -21 -23 -42 -23 -48 0 -6 -4 -9 -9 -6 -5 3 -14 -1 -21 -9 -28 -33 -136
-49 -191 -27 -42 17 -78 58 -72 82 8 29 70 31 101 3 26 -24 72 -15 108 21 28
28 34 42 34 76 0 36 -6 48 -36 76 -31 30 -63 41 -97 35 -5 -1 -6 3 -3 8 4 5 2
12 -3 16 -11 6 -3 34 15 53 7 6 24 12 39 12 43 0 85 50 85 100 0 34 -6 48 -34
76 -39 39 -80 45 -117 15 -40 -31 -66 -34 -88 -12 -69 69 106 149 223 102z"/>
<path d="M3984 4128 c-31 -15 -38 -37 -65 -201 -25 -160 -24 -170 24 -197 23
-13 31 -12 77 4 61 22 107 16 150 -20 25 -22 30 -33 30 -71 0 -91 -84 -130
-176 -82 -36 20 -43 21 -69 8 -36 -17 -53 -58 -39 -96 15 -43 101 -83 178 -83
148 1 256 108 256 255 0 75 -24 128 -78 177 -49 44 -95 65 -161 74 l-48 6 10
44 10 44 74 0 c60 0 77 4 93 20 33 33 30 75 -6 108 -23 20 -35 22 -132 21 -59
0 -117 -5 -128 -11z m234 -28 c13 0 20 -4 17 -10 -3 -5 -2 -10 4 -10 13 0 8
-24 -8 -44 -10 -12 -31 -16 -80 -16 -76 0 -101 -18 -101 -70 0 -16 -4 -31 -10
-35 -11 -7 21 -41 47 -49 10 -3 37 -6 60 -8 23 -1 40 -5 38 -9 -3 -4 8 -12 23
-18 33 -14 72 -49 91 -81 20 -34 26 -140 11 -185 -15 -45 -109 -143 -124 -128
-3 4 -6 2 -6 -4 0 -5 -8 -10 -17 -11 -47 -4 -115 -1 -135 7 -13 5 -26 8 -30 7
-15 -3 -58 46 -58 67 0 48 31 52 108 12 44 -23 93 -13 132 27 37 37 50 66 50
114 0 26 -9 43 -39 73 -47 47 -96 60 -156 42 -106 -33 -116 -20 -91 131 11 62
21 126 23 143 1 16 10 35 18 41 8 6 13 13 11 15 -3 2 41 3 97 2 56 -1 112 -2
125 -3z"/>
<path d="M872 4113 c-12 -10 -24 -30 -28 -45 -9 -40 41 -88 90 -88 l36 0 0
-270 0 -271 25 -24 c31 -32 69 -32 100 0 l25 24 0 319 c0 394 8 372 -135 372
-74 0 -97 -4 -113 -17z m150 -14 c39 -2 59 -7 63 -17 3 -8 5 -154 6 -325 0
-285 -1 -312 -17 -324 -20 -15 -43 -16 -61 -5 -9 6 -12 71 -10 260 1 163 -2
252 -8 252 -5 0 -4 4 4 9 25 16 -14 58 -61 64 -46 6 -57 14 -63 45 -3 17 2 23
22 28 18 5 21 9 11 15 -8 5 0 7 22 4 19 -2 60 -5 92 -6z"/>
<path d="M2566 3888 c3 -5 10 -6 15 -3 13 9 11 12 -6 12 -8 0 -12 -4 -9 -9z"/>
<path d="M4381 3774 c0 -11 3 -14 6 -6 3 7 2 16 -1 19 -3 4 -6 -2 -5 -13z"/>
<path d="M2783 3455 c0 -8 4 -12 9 -9 5 3 6 10 3 15 -9 13 -12 11 -12 -6z"/>
<path d="M3926 3393 c-6 -14 -5 -15 5 -6 7 7 10 15 7 18 -3 3 -9 -2 -12 -12z"/>
<path d="M829 3173 c-13 -16 -12 -17 4 -4 9 7 17 15 17 17 0 8 -8 3 -21 -13z"/>
<path d="M849 3163 c-13 -16 -12 -17 4 -4 9 7 17 15 17 17 0 8 -8 3 -21 -13z"/>
<path d="M4000 1990 c-19 -5 -38 -6 -42 -4 -5 3 -13 2 -20 -2 -7 -4 -23 -9
-35 -10 -31 -3 -163 -65 -163 -75 0 -5 -3 -8 -7 -7 -17 6 -121 -95 -171 -166
-18 -25 -30 -46 -26 -46 4 0 0 -8 -8 -17 -30 -35 -60 -146 -66 -241 -9 -170
55 -332 179 -452 76 -73 101 -91 166 -121 116 -54 255 -71 363 -45 14 3 39 8
55 12 40 8 155 63 155 75 0 4 12 15 28 23 34 19 120 96 107 96 -5 0 1 7 13 16
12 8 22 20 22 26 0 6 11 26 25 43 13 18 22 35 19 37 -2 3 2 11 11 18 8 7 15
20 15 30 0 10 7 34 15 53 22 52 21 261 -2 330 -19 61 -74 163 -103 194 -11 12
-20 25 -20 28 0 13 -102 105 -116 105 -8 0 -14 4 -14 8 0 13 -137 73 -175 78
-11 1 -31 5 -45 7 -51 11 -126 14 -160 7z m209 -47 c146 -40 295 -163 359
-295 119 -245 57 -523 -153 -697 -100 -82 -226 -126 -365 -125 -309 2 -560
255 -560 567 0 377 358 651 719 550z"/>
<path d="M3901 1674 c-20 -26 -21 -36 -21 -294 0 -255 1 -268 21 -294 27 -34
77 -36 107 -3 18 19 22 35 22 90 l0 67 37 -42 c98 -114 126 -138 159 -138 37
0 74 38 74 76 0 14 -25 52 -65 97 -68 77 -73 87 -52 87 43 0 116 114 117 181
0 53 -44 132 -92 165 -39 27 -48 29 -163 32 l-122 4 -22 -28z m274 -24 c10 -8
19 -13 20 -10 3 7 49 -49 62 -75 13 -24 11 -113 -3 -136 -15 -27 -59 -73 -80
-85 -38 -22 -29 -55 34 -121 48 -50 58 -66 54 -89 -7 -59 -49 -57 -106 5 -23
25 -55 59 -72 77 -17 19 -30 35 -28 37 2 1 -6 3 -16 4 -26 2 -30 -7 -35 -71
-2 -30 -6 -64 -9 -74 -8 -25 -42 -34 -60 -17 -7 8 -16 12 -19 8 -3 -3 -6 121
-7 275 0 261 1 281 17 286 10 2 66 4 124 3 77 -2 111 -6 124 -17z"/>
<path d="M4023 1571 c-17 -16 -20 -30 -19 -74 2 -68 17 -87 67 -87 75 0 128
90 82 139 -15 15 -79 41 -104 41 -3 0 -15 -9 -26 -19z m110 -39 c39 -34 8 -77
-60 -84 l-43 -4 0 57 0 57 43 -5 c23 -3 50 -12 60 -21z"/>
<path d="M4260 1276 c0 -2 8 -10 18 -17 15 -13 16 -12 3 4 -13 16 -21 21 -21
13z"/>
<path d="M3849 1063 c-13 -16 -12 -17 4 -4 16 13 21 21 13 21 -2 0 -10 -8 -17
-17z"/>
<path d="M3970 866 c0 -2 7 -7 16 -10 8 -3 12 -2 9 4 -6 10 -25 14 -25 6z"/>
<path d="M3473 1905 c0 -8 4 -12 9 -9 5 3 6 10 3 15 -9 13 -12 11 -12 -6z"/>
<path d="M1000 1751 c-74 -24 -129 -71 -154 -133 -21 -50 -20 -70 5 -102 15
-19 30 -26 55 -26 36 0 74 28 74 55 0 25 47 65 75 65 15 0 37 -11 52 -26 21
-21 24 -32 20 -61 -7 -41 -31 -78 -176 -277 -58 -80 -101 -149 -101 -162 0
-13 11 -36 24 -51 l24 -28 182 0 182 0 24 28 c29 34 30 56 4 90 -20 25 -27 26
-119 29 l-98 3 74 105 c91 127 121 186 130 245 12 90 -38 185 -119 226 -44 23
-120 32 -158 20z m106 -34 c3 -3 12 -3 18 -1 7 3 24 -6 37 -20 13 -14 29 -26
35 -26 16 0 40 -51 50 -109 8 -40 -15 -143 -29 -134 -6 4 -8 0 -4 -10 3 -10 3
-17 -2 -17 -5 0 -14 -13 -21 -30 -7 -16 -16 -30 -20 -30 -4 0 -12 -12 -19 -26
-12 -27 -69 -104 -86 -116 -14 -10 -15 -50 -1 -63 6 -6 47 -12 91 -12 44 -1
88 -5 98 -8 20 -8 24 -63 5 -70 -7 -3 -87 -6 -178 -8 -153 -3 -166 -2 -182 17
-10 10 -18 23 -18 29 0 10 39 78 50 87 20 18 68 88 63 93 -3 4 2 9 11 13 9 3
16 10 16 16 0 5 17 30 38 56 110 134 125 234 41 276 -57 28 -116 1 -146 -67
-15 -32 -34 -42 -67 -33 -22 5 -24 11 -21 45 4 49 17 73 51 100 15 12 23 21
18 21 -5 1 14 9 41 19 46 17 118 21 131 8z"/>
<path d="M2556 1707 c-46 -49 -256 -414 -256 -445 0 -66 39 -84 183 -81 l111
1 -3 -50 c-4 -79 25 -122 83 -122 42 0 66 39 66 108 0 61 0 62 35 76 60 25 60
112 0 130 l-30 9 0 161 c0 179 -9 217 -56 241 -52 27 -88 20 -133 -28z m73 -1
c10 -6 12 -5 7 2 -5 8 1 11 18 10 13 -1 23 -5 20 -9 -2 -4 5 -9 15 -12 18 -4
19 -17 21 -178 l1 -173 41 -37 c34 -30 40 -40 34 -63 -3 -14 -12 -26 -18 -26
-6 0 -22 -10 -35 -22 -19 -18 -23 -32 -23 -79 0 -49 -3 -60 -21 -70 -16 -8
-27 -8 -45 1 -13 7 -21 17 -18 22 3 5 0 16 -8 25 -7 10 -8 14 -1 10 21 -13 3
76 -20 96 -17 15 -37 18 -132 16 -61 -1 -117 1 -123 5 -13 8 -16 48 -4 60 4 4
7 11 7 14 1 4 10 25 22 47 11 22 21 44 21 49 0 5 4 12 9 15 18 13 48 54 33 46
-8 -5 -2 6 13 24 15 19 26 40 23 48 -3 8 -1 11 4 8 6 -3 10 -2 10 3 0 5 15 32
33 58 18 27 38 61 45 77 6 15 19 27 27 27 9 0 14 4 11 9 -7 11 13 9 33 -3z"/>
<path d="M2570 1502 c-41 -51 -60 -84 -54 -94 5 -7 2 -9 -8 -5 -12 4 -14 1
-11 -13 3 -10 0 -21 -6 -24 -15 -10 -14 -43 2 -53 6 -4 32 -8 57 -9 65 -3 79
18 77 110 -3 93 -25 127 -57 88z m30 -87 l0 -83 -53 -4 -53 -3 44 74 c24 41
44 82 45 92 1 10 5 15 9 13 4 -3 8 -43 8 -89z"/>
<path d="M2325 1509 c-4 -6 -5 -12 -2 -15 2 -3 7 2 10 11 7 17 1 20 -8 4z"/>
<path d="M2566 1008 c3 -5 10 -6 15 -3 13 9 11 12 -6 12 -8 0 -12 -4 -9 -9z"/>
<path d="M4616 841 c-3 -5 2 -15 12 -22 15 -12 16 -12 5 2 -7 9 -10 19 -6 22
3 4 4 7 0 7 -3 0 -8 -4 -11 -9z"/>
<path d="M573 755 c0 -7 6 -11 14 -8 7 3 13 6 13 8 0 2 -6 5 -13 8 -8 3 -14
-1 -14 -8z"/>
</g>
</svg>
